<?xml version="1.0" encoding="UTF-8" standalone="no"?>
<!DOCTYPE svg PUBLIC "-//W3C//DTD SVG 1.1//EN" "http://www.w3.org/Graphics/SVG/1.1/DTD/svg11.dtd">
<svg width="100%" height="100%" viewBox="0 0 1000 500" version="1.1" xmlns="http://www.w3.org/2000/svg" xmlns:xlink="http://www.w3.org/1999/xlink" xml:space="preserve" style="fill-rule:evenodd;clip-rule:evenodd;stroke-linejoin:round;stroke-miterlimit:1.41421;">
    <g transform="matrix(4.13834,-1.0136e-15,1.0136e-15,4.13834,343.451,94.4072)">
        <path d="M51.398,32.09L57.07,28.934C56.086,27.305 54.941,25.746 53.625,24.285L48.98,28.824C49.891,29.859 50.695,30.949 51.398,32.09Z" style="fill:white;fill-rule:nonzero;"/>
        <path d="M47.945,61.516C38.609,70.852 23.477,70.852 14.141,61.516C4.805,52.18 4.805,37.047 14.141,27.711C21.328,20.523 31.949,18.879 40.715,22.754L43.617,16.949C32.418,11.859 18.766,13.918 9.559,23.129C-2.309,34.996 -2.309,54.234 9.559,66.098C21.426,77.961 40.664,77.965 52.527,66.098C61.871,56.754 63.852,42.844 58.48,31.559L52.746,34.59C56.828,43.426 55.227,54.234 47.945,61.516Z" style="fill:white;fill-rule:nonzero;"/>
        <path d="M46.977,26.801L51.516,22.164C49.879,20.672 48.121,19.391 46.273,18.316L43.246,24.055C44.555,24.836 45.805,25.75 46.977,26.801Z" style="fill:white;fill-rule:nonzero;"/>
        <path d="M39.066,52.637C34.637,57.066 27.453,57.066 23.023,52.637C18.594,48.207 18.594,41.023 23.023,36.594C26.285,33.332 31.039,32.48 35.09,34.023L37.996,28.207C31.508,25.461 23.73,26.723 18.441,32.012C11.48,38.973 11.48,50.262 18.441,57.223C25.402,64.184 36.688,64.184 43.652,57.223C49,51.875 50.223,43.98 47.355,37.449L41.609,40.484C43.191,44.551 42.352,49.352 39.066,52.637Z" style="fill:white;fill-rule:nonzero;"/>
        <path d="M39.973,37.633C40.121,37.824 40.266,38.016 40.402,38.215L46.078,35.055C45.645,34.375 45.156,33.719 44.621,33.09L39.973,37.633Z" style="fill:white;fill-rule:nonzero;"/>
        <path d="M42.707,31.16C41.973,30.523 41.199,29.953 40.395,29.457L37.363,35.199C37.637,35.383 37.91,35.582 38.172,35.793L42.707,31.16Z" style="fill:white;fill-rule:nonzero;"/>
        <path d="M30.152,44.703C30.113,44.633 30.082,44.562 30.062,44.488C29.98,44.164 30.137,43.926 30.156,43.898L32.207,39.797C30.715,39.52 29.121,39.957 27.965,41.109C26.105,42.969 26.105,45.98 27.965,47.84C29.824,49.699 32.836,49.699 34.695,47.84C35.887,46.648 36.309,44.984 35.977,43.457L31.797,45.664C31.793,45.668 31.641,45.758 31.426,45.758C31.246,45.758 31.004,45.691 30.77,45.449C30.688,45.391 30.605,45.32 30.523,45.238C30.34,45.059 30.223,44.879 30.152,44.703Z" style="fill:white;fill-rule:nonzero;"/>
        <path d="M34.367,39.684L50.711,8.695L50.891,8.707C51.266,8.707 54.223,8.555 56.25,3.609C55.898,3.41 55.469,3.309 54.965,3.309C53.605,3.309 52.207,4.039 52.191,4.047L51.801,4.254L51.781,3.812C51.781,3.785 51.641,1.082 49.875,0.199C46.836,4.941 48.695,7.652 48.715,7.68L48.812,7.816L48.734,7.969L31.34,42.777L34.367,39.684Z" style="fill:white;fill-rule:nonzero;"/>
        <path d="M33.125,44.324L67.551,26.137L67.695,26.246C67.703,26.254 68.5,26.844 69.988,26.844C71.52,26.844 73.203,26.242 75,25.059C74.227,23.473 71.43,23.133 71.402,23.129L70.961,23.078L71.195,22.699C71.211,22.676 72.621,20.367 71.66,18.641C66.477,20.84 66.48,24.129 66.48,24.16L66.484,24.328L36.496,41.027L33.125,44.324Z" style="fill:white;fill-rule:nonzero;"/>
        <path d="M30.723,44.207C30.695,44.23 30.645,44.281 30.641,44.367C30.637,44.492 30.734,44.664 30.914,44.844C31.098,45.023 31.27,45.125 31.402,45.125C31.496,45.125 31.551,45.074 31.555,45.07L60.695,16.582L60.863,16.645C60.867,16.645 61.227,16.781 61.836,16.781C62.918,16.781 65.078,16.34 67.527,13.434C66.352,12.152 63.543,12.605 63.527,12.605L63.09,12.68L63.207,12.254C63.215,12.227 63.91,9.613 62.5,8.23C58.156,11.812 59.094,14.961 59.102,14.992L59.152,15.152L59.035,15.273L30.723,44.207Z" style="fill:white;fill-rule:nonzero;"/>
    </g>
</svg>
