<?xml version="1.0" encoding="UTF-8" standalone="no"?>
<!DOCTYPE svg PUBLIC "-//W3C//DTD SVG 1.1//EN" "http://www.w3.org/Graphics/SVG/1.1/DTD/svg11.dtd">
<svg width="100%" height="100%" viewBox="0 0 216 56" version="1.1" xmlns="http://www.w3.org/2000/svg" xmlns:xlink="http://www.w3.org/1999/xlink" xml:space="preserve" style="fill-rule:evenodd;clip-rule:evenodd;stroke-linejoin:round;stroke-miterlimit:1.41421;">
    <path d="M0.32,26.68C0.32,23.053 0.213,19.56 0,16.2L6.08,16.2L6.4,22.36L6.56,22.36C9.387,17.72 13.387,15.4 18.56,15.4C21.067,15.4 23.28,16.093 25.2,17.48C27.12,18.867 28.48,20.707 29.28,23L29.44,23C30.773,20.653 32.52,18.8 34.68,17.44C36.84,16.08 39.307,15.4 42.08,15.4C45.813,15.4 48.84,16.773 51.16,19.52C53.48,22.267 54.64,26.413 54.64,31.96L54.64,55L47.84,55L47.84,32.92C47.84,25.027 45.093,21.08 39.6,21.08C37.573,21.08 35.84,21.72 34.4,23C32.96,24.28 31.92,25.96 31.28,28.04C31.013,29 30.88,30.013 30.88,31.08L30.88,55L24.08,55L24.08,31.56C24.08,28.36 23.4,25.813 22.04,23.92C20.68,22.027 18.747,21.08 16.24,21.08C14.213,21.08 12.413,21.773 10.84,23.16C9.267,24.547 8.16,26.28 7.52,28.36C7.253,29.213 7.12,30.253 7.12,31.48L7.12,55L0.32,55L0.32,26.68L0.32,26.68ZM64.32,52.76C62.133,50.733 61.04,48.067 61.04,44.76C61.04,40.067 63.013,36.48 66.96,34C70.907,31.52 76.533,30.307 83.84,30.36L83.84,29.56C83.84,23.533 80.96,20.52 75.2,20.52C71.467,20.52 68.187,21.453 65.36,23.32L63.76,18.68C67.227,16.493 71.413,15.4 76.32,15.4C85.92,15.4 90.72,20.653 90.72,31.16L90.72,45.8C90.72,49.48 90.933,52.547 91.36,55L85.04,55L84.4,50.2L84.24,50.2C81.627,53.933 77.76,55.8 72.64,55.8C69.28,55.8 66.507,54.787 64.32,52.76L64.32,52.76ZM78.04,50.08C79.08,49.68 80.107,49.027 81.12,48.12C82.987,46.413 83.92,44.387 83.92,42.04L83.92,35.24C73.307,35.027 68,37.933 68,43.96C68,46.093 68.6,47.747 69.8,48.92C71,50.093 72.56,50.68 74.48,50.68C75.813,50.68 77,50.48 78.04,50.08ZM106.24,53.28C103.36,51.653 101.15,49.36 99.6,46.4C98.053,43.44 97.28,39.987 97.28,36.04C97.28,32.04 98.12,28.48 99.8,25.36C101.48,22.24 103.87,19.8 106.96,18.04C110.05,16.28 113.63,15.4 117.68,15.4C121.52,15.4 124.67,16.067 127.12,17.4L125.6,22.76C123.31,21.533 120.67,20.92 117.68,20.92C113.52,20.92 110.25,22.307 107.88,25.08C105.51,27.853 104.32,31.4 104.32,35.72C104.32,40.04 105.55,43.533 108,46.2C110.45,48.867 113.63,50.2 117.52,50.2C120.19,50.2 122.96,49.587 125.84,48.36L126.96,53.64C123.92,55.027 120.35,55.72 116.24,55.72C112.45,55.72 109.12,54.907 106.24,53.28L106.24,53.28ZM142.64,52.4C139.07,50.08 136.31,46.84 134.36,42.68C132.41,38.52 131.44,33.8 131.44,28.52C131.44,23.027 132.47,18.133 134.52,13.84C136.57,9.547 139.44,6.2 143.12,3.8C146.8,1.4 151.04,0.2 155.84,0.2C160.48,0.2 164.59,1.347 168.16,3.64C171.73,5.933 174.51,9.16 176.48,13.32C178.45,17.48 179.44,22.227 179.44,27.56C179.44,33.16 178.44,38.093 176.44,42.36C174.44,46.627 171.6,49.947 167.92,52.32C164.24,54.693 159.95,55.88 155.04,55.88C150.35,55.88 146.21,54.72 142.64,52.4L142.64,52.4ZM164.16,47.4C166.72,45.48 168.69,42.813 170.08,39.4C171.47,35.987 172.16,32.147 172.16,27.88C172.16,23.667 171.45,19.88 170.04,16.52C168.63,13.16 166.65,10.533 164.12,8.64C161.59,6.747 158.69,5.8 155.44,5.8C152.13,5.8 149.21,6.773 146.68,8.72C144.15,10.667 142.19,13.347 140.8,16.76C139.41,20.173 138.72,24.04 138.72,28.36C138.72,32.52 139.41,36.267 140.8,39.6C142.19,42.933 144.15,45.547 146.68,47.44C149.21,49.333 152.11,50.28 155.36,50.28C158.67,50.28 161.6,49.32 164.16,47.4L164.16,47.4ZM183.68,52.44L185.44,46.68C189.01,48.973 193.07,50.12 197.6,50.12C200.96,50.12 203.68,49.28 205.76,47.6C207.84,45.92 208.88,43.693 208.88,40.92C208.88,38.413 208.08,36.32 206.48,34.64C204.88,32.96 202.29,31.453 198.72,30.12C189.39,26.6 184.72,21.48 184.72,14.76C184.72,11.987 185.45,9.493 186.92,7.28C188.39,5.067 190.44,3.333 193.08,2.08C195.72,0.827 198.69,0.2 202,0.2C206.75,0.2 210.61,1.053 213.6,2.76L211.68,8.44C208.85,6.733 205.55,5.88 201.76,5.88C198.83,5.88 196.4,6.627 194.48,8.12C192.56,9.613 191.6,11.56 191.6,13.96C191.6,16.307 192.36,18.227 193.88,19.72C195.4,21.213 198.19,22.787 202.24,24.44C206.93,26.36 210.36,28.56 212.52,31.04C214.68,33.52 215.76,36.627 215.76,40.36C215.76,43.453 215,46.16 213.48,48.48C211.96,50.8 209.8,52.6 207,53.88C204.2,55.16 200.91,55.8 197.12,55.8C191.52,55.8 187.04,54.68 183.68,52.44L183.68,52.44Z" style="fill:white;fill-rule:nonzero;"/>
</svg>
