<?xml version="1.0" encoding="UTF-8" standalone="no"?>
<!DOCTYPE svg PUBLIC "-//W3C//DTD SVG 1.1//EN" "http://www.w3.org/Graphics/SVG/1.1/DTD/svg11.dtd">
<svg width="100%" height="100%" viewBox="0 0 328 477" version="1.1" xmlns="http://www.w3.org/2000/svg" xmlns:xlink="http://www.w3.org/1999/xlink" xml:space="preserve" style="fill-rule:evenodd;clip-rule:evenodd;stroke-linejoin:round;stroke-miterlimit:1.41421;">
    <g transform="matrix(9.92708,0,0,9.92708,-208.469,-134.016)">
        <path d="M24,57C24,59.477 26.023,61.5 28.5,61.5L46.5,61.5C48.977,61.5 51,59.477 51,57L51,47.25L54,47.25L54,26.25L51,26.25L51,18C51,15.523 48.977,13.5 46.5,13.5L28.5,13.5C26.023,13.5 24,15.523 24,18L24,26.25L21,26.25L21,47.25L24,47.25L24,57ZM37.5,60C36.227,60 35.25,59.023 35.25,57.75C35.25,56.477 36.227,55.5 37.5,55.5C38.773,55.5 39.75,56.477 39.75,57.75C39.75,59.023 38.773,60 37.5,60ZM49.5,54L25.5,54L25.5,47.25L49.5,47.25L49.5,54ZM34.051,42L33,43.051L28.949,39L33,34.949L34.051,36L31.051,39L34.051,42ZM35.023,42.301L38.699,34.949L40.051,35.625L36.375,42.977L35.023,42.301ZM40.949,36L42,34.949L46.051,39L42,43.051L40.949,42L43.949,39L40.949,36ZM33.75,16.5L41.25,16.5L41.25,18L33.75,18L33.75,16.5ZM25.5,21L49.5,21L49.5,26.25L25.5,26.25L25.5,21ZM22.5,30.75L22.5,29.25L52.5,29.25L52.5,30.75L22.5,30.75Z" style="fill:white;fill-rule:nonzero;"/>
    </g>
</svg>
