<?xml version="1.0" encoding="UTF-8" standalone="no"?>
<!DOCTYPE svg PUBLIC "-//W3C//DTD SVG 1.1//EN" "http://www.w3.org/Graphics/SVG/1.1/DTD/svg11.dtd">
<svg width="100%" height="100%" viewBox="0 0 131 120" version="1.1" xmlns="http://www.w3.org/2000/svg" xmlns:xlink="http://www.w3.org/1999/xlink" xml:space="preserve" style="fill-rule:evenodd;clip-rule:evenodd;stroke-linejoin:round;stroke-miterlimit:1.41421;">
    <g>
        <path d="M94.648,3.303L94.771,3.305L94.893,3.307L95.016,3.311L95.138,3.316L95.261,3.321L95.383,3.328L95.504,3.335L95.626,3.344L95.747,3.354L95.868,3.365L95.989,3.376L96.109,3.389L96.23,3.403L96.35,3.418L96.469,3.434L96.589,3.451L96.708,3.469L96.827,3.488L96.946,3.509L97.064,3.53L97.182,3.553L97.3,3.576L97.417,3.601L97.535,3.627L97.651,3.653L97.768,3.681L97.884,3.711L98,3.741L98.115,3.772L98.23,3.805L98.345,3.838L98.459,3.873L98.573,3.909L98.687,3.946L98.8,3.985L98.913,4.024L99.025,4.065L99.137,4.106L99.248,4.149L99.359,4.193L99.47,4.238L99.58,4.285L99.689,4.332L99.798,4.381L99.907,4.431L100.015,4.482L100.122,4.534L100.229,4.587L100.336,4.642L100.442,4.697L100.547,4.754L100.652,4.812L100.756,4.871L100.86,4.932L100.963,4.993L101.065,5.056L101.167,5.119L101.271,5.186L101.418,5.284L101.567,5.385L101.713,5.489L101.858,5.596L102.001,5.704L102.142,5.815L102.282,5.928L102.419,6.043L102.554,6.16L102.688,6.279L102.819,6.401L102.949,6.524L103.077,6.65L103.202,6.777L103.326,6.906L103.448,7.038L103.567,7.171L103.685,7.306L103.801,7.443L103.915,7.581L104.026,7.722L104.136,7.864L104.244,8.008L104.35,8.153L104.453,8.301L104.555,8.449L104.655,8.6L104.753,8.752L104.849,8.905L104.943,9.06L105.035,9.217L105.125,9.375L105.213,9.534L105.299,9.695L105.384,9.858L105.466,10.021L105.547,10.186L105.625,10.353L105.702,10.521L105.778,10.69L105.851,10.86L105.922,11.032L105.992,11.205L106.06,11.379L106.126,11.555L106.191,11.732L106.253,11.91L106.314,12.089L106.374,12.269L106.431,12.451L106.487,12.634L106.541,12.818L106.594,13.003L106.645,13.189L106.694,13.377L106.742,13.566L106.788,13.756L106.832,13.947L106.875,14.139L106.916,14.332L106.956,14.527L106.994,14.722L107.031,14.919L107.066,15.117L107.099,15.316L107.131,15.516L107.162,15.717L107.191,15.919L107.218,16.122L107.245,16.327L107.269,16.532L107.292,16.739L107.314,16.946L107.334,17.155L107.353,17.365L107.37,17.576L107.386,17.788L107.401,18.001L107.414,18.215L107.425,18.43L107.436,18.646L107.444,18.863L107.452,19.081L107.458,19.301L107.463,19.521L107.466,19.742L107.468,19.964L107.469,20.188L107.468,20.412L107.466,20.638L107.462,20.864L107.457,21.092L107.451,21.32L107.444,21.549L107.435,21.78L107.425,22.011L107.413,22.244L107.401,22.477L107.387,22.711L107.371,22.947L107.354,23.183L107.336,23.421L107.317,23.659L107.297,23.898L107.275,24.138L107.251,24.38L107.227,24.622L107.201,24.865L107.174,25.109L107.146,25.354L107.116,25.6L107.086,25.847L107.053,26.094L107.02,26.343L106.986,26.593L106.95,26.843L106.912,27.095L106.874,27.347L106.834,27.6L106.794,27.854L106.751,28.109L106.708,28.365L106.663,28.622L106.618,28.88L106.571,29.138L106.522,29.398L106.473,29.658L106.423,29.914L106.34,30.231L106.216,30.533L106.053,30.817L105.855,31.078L105.625,31.31L105.367,31.51L105.084,31.675L104.783,31.801L104.467,31.887L104.143,31.931L103.816,31.933L103.492,31.891L103.175,31.808L102.873,31.684L102.589,31.522L102.329,31.324L102.096,31.094L101.896,30.835L101.731,30.553L101.605,30.251L101.519,29.936L101.475,29.612L101.473,29.285L101.515,28.96L101.563,28.713L101.609,28.472L101.653,28.233L101.697,27.994L101.739,27.756L101.78,27.52L101.82,27.284L101.859,27.05L101.896,26.817L101.933,26.584L101.968,26.353L102.002,26.124L102.034,25.895L102.066,25.667L102.096,25.441L102.126,25.216L102.154,24.991L102.18,24.769L102.206,24.547L102.23,24.327L102.254,24.107L102.276,23.889L102.296,23.673L102.316,23.457L102.334,23.243L102.352,23.03L102.368,22.818L102.383,22.608L102.396,22.399L102.409,22.191L102.42,21.984L102.43,21.779L102.439,21.575L102.447,21.373L102.453,21.171L102.459,20.972L102.463,20.773L102.466,20.576L102.468,20.38L102.468,20.186L102.468,19.993L102.466,19.802L102.463,19.612L102.459,19.423L102.454,19.236L102.448,19.05L102.44,18.866L102.432,18.684L102.422,18.502L102.411,18.323L102.399,18.144L102.386,17.968L102.371,17.792L102.356,17.619L102.339,17.447L102.321,17.276L102.302,17.107L102.282,16.94L102.261,16.774L102.239,16.61L102.216,16.447L102.191,16.286L102.166,16.127L102.139,15.969L102.111,15.813L102.083,15.659L102.053,15.506L102.022,15.355L101.99,15.205L101.957,15.057L101.923,14.911L101.888,14.767L101.852,14.624L101.815,14.483L101.777,14.344L101.738,14.207L101.698,14.071L101.657,13.937L101.615,13.805L101.572,13.674L101.528,13.545L101.484,13.418L101.438,13.293L101.391,13.169L101.344,13.047L101.295,12.927L101.246,12.809L101.196,12.692L101.145,12.578L101.093,12.465L101.041,12.353L100.987,12.244L100.933,12.136L100.878,12.03L100.822,11.926L100.765,11.823L100.707,11.722L100.649,11.623L100.59,11.526L100.53,11.43L100.47,11.336L100.408,11.243L100.346,11.153L100.284,11.064L100.22,10.976L100.156,10.89L100.091,10.806L100.025,10.723L99.959,10.642L99.891,10.563L99.823,10.485L99.755,10.409L99.685,10.334L99.615,10.26L99.544,10.188L99.472,10.118L99.4,10.048L99.326,9.981L99.252,9.914L99.177,9.85L99.101,9.786L99.025,9.724L98.947,9.663L98.868,9.603L98.789,9.545L98.708,9.488L98.627,9.432L98.542,9.376L98.489,9.342L98.433,9.307L98.377,9.273L98.321,9.239L98.264,9.206L98.207,9.174L98.15,9.142L98.092,9.111L98.033,9.08L97.975,9.05L97.916,9.021L97.856,8.992L97.796,8.964L97.736,8.936L97.675,8.909L97.614,8.882L97.553,8.856L97.491,8.831L97.428,8.806L97.366,8.782L97.302,8.759L97.239,8.736L97.174,8.713L97.11,8.691L97.044,8.67L96.979,8.649L96.913,8.629L96.846,8.609L96.779,8.591L96.711,8.572L96.643,8.554L96.575,8.537L96.505,8.52L96.436,8.504L96.366,8.489L96.295,8.474L96.224,8.46L96.152,8.446L96.08,8.433L96.007,8.421L95.933,8.409L95.859,8.398L95.785,8.387L95.71,8.377L95.634,8.367L95.558,8.359L95.482,8.351L95.405,8.343L95.327,8.336L95.249,8.33L95.17,8.324L95.09,8.319L95.01,8.315L94.93,8.311L94.849,8.308L94.767,8.306L94.685,8.304L94.602,8.303L94.519,8.303L94.435,8.303L94.351,8.304L94.266,8.305L94.181,8.308L94.096,8.31L93.978,8.316L93.86,8.322L93.741,8.329L93.621,8.338L93.5,8.348L93.378,8.36L93.255,8.372L93.131,8.386L93.006,8.401L92.88,8.418L92.753,8.435L92.626,8.454L92.497,8.475L92.367,8.496L92.237,8.519L92.105,8.543L91.973,8.569L91.84,8.596L91.705,8.624L91.57,8.654L91.434,8.685L91.297,8.717L91.159,8.75L91.021,8.785L90.881,8.821L90.741,8.859L90.6,8.898L90.458,8.938L90.315,8.98L90.171,9.023L90.027,9.067L89.882,9.113L89.736,9.159L89.589,9.208L89.441,9.257L89.293,9.308L89.143,9.361L88.994,9.414L88.843,9.47L88.691,9.526L88.539,9.584L88.386,9.643L88.233,9.703L88.079,9.765L87.924,9.828L87.768,9.892L87.611,9.958L87.454,10.025L87.297,10.094L87.138,10.164L86.979,10.235L86.819,10.307L86.659,10.381L86.498,10.456L86.336,10.533L86.174,10.61L86.011,10.689L85.848,10.77L85.684,10.852L85.519,10.935L85.354,11.019L85.188,11.105L85.021,11.192L84.854,11.28L84.687,11.37L84.518,11.46L84.35,11.553L84.181,11.646L84.011,11.741L83.84,11.837L83.67,11.934L83.498,12.033L83.326,12.133L83.154,12.234L82.981,12.337L82.808,12.441L82.634,12.546L82.459,12.652L82.285,12.76L82.109,12.869L81.933,12.979L81.757,13.09L81.58,13.203L81.403,13.317L81.226,13.432L81.048,13.549L80.869,13.666L80.69,13.785L80.511,13.905L80.331,14.027L80.151,14.149L79.971,14.273L79.79,14.398L79.608,14.525L79.427,14.652L79.244,14.781L79.062,14.911L78.879,15.042L78.696,15.175L78.512,15.309L78.328,15.443L78.144,15.579L77.959,15.717L77.774,15.855L77.589,15.995L77.403,16.136L77.217,16.278L77.031,16.421L76.844,16.565L76.657,16.711L76.47,16.858L76.282,17.006L76.095,17.155L75.908,17.304L75.529,17.609L75.151,17.918L74.772,18.231L74.391,18.549L74.01,18.871L73.628,19.198L73.244,19.529L72.86,19.865L72.475,20.205L72.089,20.55L71.703,20.899L71.316,21.253L70.928,21.611L70.539,21.973L70.15,22.339L69.76,22.71L69.369,23.085L68.978,23.464L68.587,23.848L68.195,24.236L67.803,24.627L67.41,25.023L67.017,25.423L66.624,25.827L66.23,26.235L65.836,26.648L65.442,27.064L65.048,27.484L64.654,27.908L64.259,28.336L63.865,28.768L63.47,29.204L63.075,29.643L62.681,30.087L62.286,30.534L61.892,30.985L61.498,31.44L61.104,31.898L60.71,32.36L60.316,32.826L59.923,33.296L59.53,33.769L59.137,34.246L58.745,34.726L58.353,35.21L57.961,35.697L57.57,36.188L57.179,36.683L56.789,37.18L56.4,37.682L56.011,38.186L55.623,38.694L55.235,39.206L54.848,39.72L54.462,40.238L54.077,40.76L53.692,41.284L53.308,41.812L52.925,42.343L52.543,42.877L52.162,43.414L51.782,43.955L51.403,44.498L51.025,45.045L50.648,45.594L50.272,46.147L49.897,46.703L49.523,47.262L49.151,47.823L48.779,48.388L48.409,48.956L48.191,49.292L47.974,49.629L47.757,49.966L47.542,50.304L47.328,50.641L47.116,50.978L46.904,51.314L46.693,51.651L46.484,51.988L46.276,52.325L46.068,52.662L45.862,52.998L45.657,53.335L45.454,53.671L45.251,54.007L45.049,54.343L44.849,54.679L44.65,55.015L44.452,55.351L44.255,55.686L44.059,56.022L43.864,56.357L43.671,56.692L43.478,57.027L43.287,57.361L43.097,57.696L42.908,58.03L42.72,58.364L42.534,58.698L42.348,59.031L42.164,59.364L41.981,59.697L41.799,60.03L41.618,60.363L41.439,60.695L41.26,61.027L41.083,61.358L40.907,61.689L40.732,62.02L40.559,62.351L40.386,62.681L40.215,63.011L40.045,63.341L39.876,63.67L39.708,63.999L39.542,64.328L39.376,64.656L39.212,64.983L39.049,65.311L38.888,65.638L38.727,65.964L38.568,66.29L38.41,66.616L38.253,66.941L38.097,67.266L37.943,67.59L37.789,67.914L37.637,68.238L37.487,68.56L37.337,68.883L37.189,69.205L37.041,69.526L36.896,69.847L36.751,70.167L36.607,70.487L36.465,70.806L36.324,71.125L36.184,71.443L36.046,71.761L35.909,72.078L35.773,72.394L35.638,72.71L35.504,73.025L35.372,73.34L35.241,73.654L35.111,73.967L34.983,74.28L34.855,74.592L34.729,74.903L34.605,75.214L34.481,75.524L34.359,75.834L34.238,76.142L34.118,76.45L34,76.758L33.883,77.064L33.767,77.37L33.652,77.675L33.539,77.979L33.427,78.283L33.316,78.586L33.207,78.888L33.098,79.189L32.991,79.49L32.886,79.79L32.781,80.089L32.678,80.387L32.577,80.684L32.476,80.98L32.377,81.276L32.279,81.571L32.182,81.865L32.087,82.158L31.993,82.45L31.9,82.741L31.809,83.031L31.719,83.321L31.63,83.61L31.543,83.897L31.457,84.184L31.372,84.47L31.288,84.754L31.206,85.038L31.125,85.321L31.046,85.603L30.967,85.884L30.89,86.164L30.815,86.443L30.741,86.721L30.668,86.998L30.596,87.273L30.526,87.548L30.457,87.822L30.389,88.095L30.323,88.366L30.258,88.637L30.194,88.906L30.132,89.174L30.071,89.442L30.011,89.708L29.953,89.973L29.896,90.236L29.841,90.499L29.786,90.761L29.734,91.021L29.682,91.28L29.632,91.538L29.583,91.795L29.535,92.05L29.489,92.305L29.445,92.558L29.401,92.809L29.359,93.06L29.318,93.309L29.279,93.557L29.241,93.804L29.204,94.05L29.169,94.294L29.135,94.536L29.102,94.778L29.071,95.018L29.041,95.257L29.013,95.494L28.985,95.731L28.96,95.965L28.935,96.199L28.912,96.43L28.89,96.661L28.87,96.89L28.851,97.118L28.833,97.344L28.817,97.568L28.802,97.792L28.788,98.013L28.776,98.234L28.765,98.453L28.755,98.67L28.747,98.885L28.74,99.1L28.735,99.312L28.731,99.523L28.728,99.733L28.726,99.941L28.726,100.147L28.727,100.352L28.73,100.555L28.734,100.756L28.739,100.956L28.745,101.154L28.753,101.351L28.762,101.545L28.772,101.738L28.784,101.93L28.797,102.119L28.811,102.307L28.827,102.493L28.844,102.678L28.862,102.861L28.882,103.041L28.902,103.22L28.924,103.398L28.948,103.573L28.972,103.747L28.998,103.919L29.025,104.089L29.053,104.257L29.083,104.423L29.113,104.587L29.145,104.75L29.178,104.91L29.212,105.069L29.248,105.226L29.285,105.381L29.322,105.534L29.361,105.685L29.401,105.834L29.442,105.981L29.485,106.126L29.528,106.269L29.573,106.41L29.618,106.549L29.665,106.686L29.713,106.821L29.761,106.955L29.811,107.086L29.862,107.215L29.914,107.342L29.967,107.467L30.021,107.591L30.075,107.712L30.131,107.831L30.188,107.948L30.246,108.063L30.304,108.177L30.364,108.288L30.424,108.397L30.485,108.505L30.547,108.61L30.61,108.714L30.674,108.815L30.739,108.915L30.805,109.013L30.871,109.109L30.938,109.203L31.007,109.295L31.076,109.385L31.145,109.474L31.216,109.56L31.288,109.645L31.36,109.729L31.433,109.81L31.507,109.89L31.582,109.968L31.658,110.045L31.735,110.119L31.812,110.193L31.891,110.264L31.97,110.334L32.051,110.403L32.132,110.47L32.215,110.535L32.298,110.599L32.383,110.662L32.468,110.723L32.555,110.782L32.643,110.841L32.727,110.894L32.813,110.947L32.898,110.998L32.985,111.047L33.073,111.095L33.161,111.142L33.251,111.187L33.341,111.231L33.432,111.274L33.524,111.315L33.617,111.355L33.711,111.393L33.806,111.431L33.902,111.466L33.999,111.501L34.097,111.534L34.196,111.566L34.297,111.596L34.398,111.626L34.501,111.653L34.604,111.68L34.709,111.705L34.816,111.729L34.923,111.751L35.031,111.772L35.141,111.792L35.252,111.81L35.365,111.827L35.478,111.843L35.593,111.857L35.709,111.869L35.826,111.88L35.945,111.89L36.065,111.898L36.186,111.905L36.309,111.91L36.432,111.914L36.558,111.916L36.684,111.917L36.811,111.916L36.94,111.914L37.071,111.91L37.202,111.905L37.335,111.898L37.469,111.889L37.604,111.879L37.741,111.867L37.879,111.854L38.017,111.839L38.158,111.822L38.299,111.804L38.442,111.784L38.586,111.763L38.731,111.739L38.877,111.715L39.025,111.688L39.173,111.66L39.323,111.63L39.474,111.599L39.626,111.566L39.779,111.531L39.933,111.494L40.089,111.456L40.245,111.416L40.403,111.374L40.561,111.331L40.721,111.286L40.882,111.239L41.043,111.191L41.206,111.141L41.37,111.089L41.535,111.036L41.7,110.98L41.867,110.924L42.035,110.865L42.204,110.805L42.373,110.743L42.544,110.679L42.715,110.613L42.888,110.546L43.061,110.477L43.235,110.407L43.41,110.335L43.586,110.261L43.763,110.185L43.941,110.108L44.119,110.029L44.299,109.948L44.479,109.866L44.66,109.782L44.842,109.696L45.024,109.609L45.208,109.519L45.392,109.429L45.577,109.336L45.762,109.242L45.949,109.146L46.136,109.049L46.324,108.95L46.513,108.849L46.702,108.747L46.892,108.643L47.083,108.537L47.274,108.43L47.466,108.321L47.659,108.21L47.852,108.098L48.046,107.984L48.241,107.868L48.436,107.751L48.632,107.632L48.828,107.512L49.025,107.39L49.223,107.267L49.421,107.141L49.62,107.015L49.82,106.886L50.02,106.756L50.22,106.625L50.422,106.492L50.623,106.357L50.825,106.221L51.028,106.083L51.231,105.943L51.435,105.802L51.639,105.66L51.844,105.516L52.053,105.367L52.332,105.196L52.63,105.062L52.943,104.969L53.266,104.917L53.593,104.908L53.919,104.941L54.237,105.017L54.542,105.134L54.83,105.289L55.095,105.481L55.332,105.705L55.539,105.959L55.71,106.238L55.844,106.536L55.937,106.849L55.989,107.172L55.998,107.499L55.965,107.825L55.889,108.143L55.772,108.448L55.617,108.736L55.425,109.001L55.201,109.238L54.947,109.445L54.73,109.599L54.509,109.754L54.288,109.908L54.068,110.061L53.848,110.212L53.628,110.361L53.409,110.509L53.19,110.655L52.971,110.8L52.753,110.943L52.535,111.085L52.317,111.225L52.1,111.363L51.883,111.5L51.666,111.636L51.45,111.77L51.234,111.902L51.018,112.033L50.802,112.162L50.587,112.29L50.373,112.416L50.158,112.54L49.945,112.663L49.731,112.784L49.518,112.904L49.305,113.022L49.092,113.138L48.88,113.253L48.668,113.366L48.457,113.478L48.246,113.587L48.035,113.696L47.825,113.802L47.615,113.907L47.406,114.01L47.197,114.112L46.988,114.212L46.779,114.31L46.571,114.407L46.364,114.502L46.157,114.595L45.95,114.686L45.744,114.776L45.538,114.864L45.332,114.951L45.127,115.035L44.922,115.118L44.718,115.199L44.513,115.279L44.31,115.357L44.107,115.433L43.904,115.507L43.701,115.579L43.499,115.65L43.298,115.718L43.097,115.785L42.896,115.851L42.695,115.914L42.495,115.976L42.296,116.035L42.097,116.093L41.898,116.149L41.699,116.203L41.501,116.256L41.304,116.306L41.106,116.355L40.91,116.401L40.713,116.446L40.517,116.489L40.322,116.529L40.126,116.568L39.932,116.605L39.737,116.64L39.543,116.673L39.35,116.704L39.157,116.733L38.964,116.76L38.772,116.784L38.58,116.807L38.388,116.828L38.197,116.846L38.006,116.863L37.816,116.877L37.626,116.889L37.437,116.899L37.248,116.907L37.06,116.913L36.872,116.916L36.684,116.917L36.497,116.916L36.311,116.913L36.125,116.907L35.939,116.899L35.754,116.889L35.57,116.876L35.386,116.861L35.203,116.844L35.02,116.824L34.838,116.802L34.656,116.777L34.475,116.75L34.295,116.72L34.115,116.688L33.936,116.653L33.758,116.616L33.58,116.576L33.403,116.534L33.227,116.489L33.052,116.441L32.878,116.391L32.705,116.338L32.532,116.283L32.36,116.225L32.19,116.164L32.02,116.101L31.851,116.035L31.684,115.966L31.517,115.895L31.352,115.821L31.188,115.744L31.024,115.665L30.863,115.582L30.702,115.498L30.543,115.41L30.385,115.32L30.228,115.227L30.073,115.132L29.919,115.034L29.759,114.928L29.601,114.819L29.445,114.708L29.291,114.594L29.139,114.478L28.989,114.359L28.842,114.237L28.696,114.114L28.553,113.987L28.412,113.859L28.273,113.728L28.137,113.594L28.002,113.459L27.87,113.321L27.74,113.181L27.613,113.039L27.487,112.895L27.364,112.749L27.243,112.6L27.125,112.45L27.009,112.298L26.895,112.144L26.783,111.988L26.674,111.83L26.567,111.67L26.462,111.509L26.359,111.345L26.258,111.18L26.16,111.014L26.064,110.845L25.97,110.675L25.878,110.503L25.789,110.33L25.701,110.155L25.616,109.979L25.533,109.801L25.452,109.621L25.372,109.44L25.295,109.258L25.22,109.074L25.148,108.889L25.077,108.702L25.008,108.514L24.941,108.324L24.876,108.133L24.813,107.94L24.752,107.747L24.692,107.551L24.635,107.355L24.58,107.157L24.526,106.958L24.474,106.757L24.424,106.556L24.376,106.353L24.33,106.148L24.286,105.942L24.243,105.735L24.202,105.527L24.163,105.318L24.126,105.107L24.09,104.895L24.056,104.682L24.024,104.467L23.994,104.251L23.965,104.034L23.938,103.816L23.912,103.596L23.889,103.376L23.867,103.154L23.846,102.93L23.827,102.706L23.81,102.48L23.795,102.254L23.781,102.026L23.768,101.796L23.758,101.566L23.748,101.334L23.741,101.102L23.735,100.868L23.73,100.633L23.727,100.396L23.726,100.159L23.726,99.92L23.728,99.681L23.731,99.44L23.736,99.198L23.742,98.954L23.75,98.71L23.76,98.464L23.771,98.218L23.783,97.97L23.797,97.721L23.812,97.471L23.829,97.22L23.847,96.968L23.867,96.714L23.888,96.46L23.911,96.204L23.935,95.948L23.961,95.69L23.988,95.431L24.017,95.171L24.047,94.91L24.078,94.648L24.111,94.385L24.146,94.121L24.181,93.856L24.219,93.589L24.257,93.322L24.297,93.054L24.339,92.785L24.382,92.514L24.426,92.243L24.472,91.97L24.519,91.697L24.568,91.422L24.618,91.147L24.669,90.871L24.722,90.593L24.776,90.315L24.832,90.035L24.889,89.755L24.947,89.474L25.007,89.192L25.068,88.908L25.13,88.624L25.194,88.339L25.259,88.053L25.326,87.766L25.394,87.478L25.463,87.19L25.534,86.9L25.606,86.609L25.679,86.318L25.754,86.026L25.83,85.732L25.908,85.438L25.987,85.143L26.067,84.847L26.148,84.551L26.231,84.253L26.315,83.955L26.401,83.656L26.488,83.355L26.576,83.055L26.666,82.753L26.757,82.45L26.849,82.147L26.942,81.843L27.037,81.538L27.133,81.233L27.231,80.926L27.33,80.619L27.43,80.311L27.531,80.002L27.634,79.693L27.738,79.383L27.844,79.072L27.95,78.76L28.058,78.448L28.168,78.135L28.278,77.821L28.39,77.506L28.503,77.191L28.618,76.875L28.734,76.559L28.851,76.241L28.969,75.924L29.089,75.605L29.21,75.286L29.332,74.966L29.455,74.646L29.58,74.325L29.706,74.003L29.834,73.681L29.962,73.358L30.092,73.034L30.223,72.71L30.356,72.385L30.489,72.06L30.624,71.734L30.76,71.408L30.898,71.081L31.037,70.754L31.177,70.426L31.318,70.097L31.46,69.768L31.604,69.438L31.749,69.108L31.895,68.778L32.043,68.447L32.191,68.115L32.341,67.783L32.493,67.451L32.645,67.118L32.799,66.784L32.954,66.45L33.11,66.116L33.267,65.781L33.426,65.446L33.586,65.11L33.747,64.774L33.909,64.438L34.073,64.101L34.237,63.764L34.403,63.426L34.57,63.088L34.739,62.75L34.908,62.411L35.079,62.072L35.251,61.733L35.424,61.393L35.599,61.053L35.775,60.713L35.951,60.372L36.129,60.031L36.309,59.69L36.489,59.349L36.671,59.007L36.854,58.665L37.038,58.322L37.223,57.98L37.409,57.637L37.597,57.294L37.786,56.95L37.975,56.607L38.167,56.263L38.359,55.919L38.552,55.575L38.747,55.23L38.943,54.886L39.14,54.541L39.338,54.196L39.538,53.851L39.738,53.506L39.94,53.16L40.143,52.815L40.347,52.469L40.552,52.123L40.758,51.777L40.966,51.431L41.174,51.085L41.384,50.739L41.595,50.392L41.807,50.046L42.02,49.699L42.235,49.353L42.45,49.006L42.667,48.659L42.885,48.313L43.104,47.966L43.324,47.619L43.545,47.272L43.768,46.926L43.991,46.579L44.216,46.231L44.597,45.648L44.979,45.067L45.362,44.49L45.746,43.915L46.132,43.343L46.519,42.774L46.907,42.208L47.297,41.646L47.687,41.086L48.078,40.53L48.471,39.976L48.864,39.426L49.259,38.879L49.654,38.336L50.05,37.795L50.447,37.258L50.845,36.724L51.244,36.193L51.644,35.666L52.044,35.142L52.445,34.622L52.847,34.105L53.25,33.591L53.653,33.081L54.057,32.574L54.461,32.071L54.866,31.571L55.271,31.075L55.677,30.582L56.083,30.093L56.49,29.607L56.897,29.125L57.305,28.647L57.713,28.173L58.121,27.702L58.529,27.235L58.938,26.771L59.347,26.312L59.756,25.856L60.166,25.404L60.575,24.955L60.984,24.511L61.394,24.071L61.804,23.634L62.213,23.201L62.623,22.773L63.033,22.348L63.442,21.927L63.852,21.51L64.261,21.098L64.67,20.689L65.079,20.285L65.488,19.884L65.897,19.488L66.305,19.096L66.713,18.708L67.121,18.324L67.528,17.944L67.935,17.569L68.342,17.198L68.748,16.831L69.154,16.468L69.559,16.11L69.964,15.756L70.368,15.407L70.771,15.061L71.175,14.721L71.577,14.384L71.979,14.053L72.38,13.725L72.779,13.404L72.98,13.243L73.18,13.084L73.38,12.927L73.579,12.771L73.779,12.615L73.978,12.461L74.176,12.309L74.375,12.157L74.574,12.006L74.772,11.857L74.97,11.709L75.168,11.562L75.365,11.416L75.563,11.271L75.76,11.127L75.957,10.985L76.154,10.844L76.35,10.704L76.547,10.565L76.743,10.427L76.939,10.291L77.134,10.156L77.33,10.022L77.525,9.889L77.72,9.757L77.914,9.627L78.109,9.497L78.303,9.369L78.497,9.242L78.69,9.117L78.884,8.992L79.077,8.869L79.27,8.747L79.462,8.627L79.655,8.507L79.847,8.389L80.039,8.272L80.23,8.156L80.422,8.042L80.613,7.928L80.803,7.816L80.994,7.706L81.184,7.596L81.374,7.488L81.563,7.381L81.753,7.275L81.942,7.171L82.13,7.068L82.319,6.966L82.507,6.865L82.695,6.766L82.882,6.668L83.07,6.571L83.257,6.476L83.443,6.381L83.63,6.289L83.816,6.197L84.002,6.107L84.187,6.018L84.372,5.93L84.557,5.844L84.742,5.759L84.926,5.676L85.11,5.593L85.293,5.513L85.477,5.433L85.66,5.355L85.842,5.278L86.025,5.202L86.207,5.128L86.389,5.056L86.57,4.984L86.751,4.914L86.932,4.846L87.113,4.778L87.293,4.713L87.473,4.648L87.652,4.585L87.832,4.524L88.011,4.463L88.189,4.405L88.367,4.347L88.545,4.291L88.723,4.237L88.901,4.184L89.078,4.132L89.254,4.082L89.431,4.034L89.607,3.987L89.783,3.941L89.958,3.897L90.133,3.854L90.308,3.813L90.483,3.773L90.657,3.735L90.831,3.699L91.004,3.664L91.178,3.63L91.35,3.598L91.523,3.568L91.695,3.539L91.867,3.512L92.039,3.487L92.21,3.463L92.381,3.44L92.552,3.42L92.722,3.4L92.892,3.383L93.062,3.367L93.231,3.353L93.4,3.341L93.569,3.33L93.737,3.321L93.904,3.314L94.029,3.31L94.153,3.307L94.277,3.304L94.401,3.303L94.524,3.303L94.648,3.303Z" style="fill:white;"/>
        <path d="M58.408,34.407L59.009,34.411L59.612,34.417L60.216,34.425L60.821,34.436L61.427,34.449L62.035,34.464L62.645,34.481L63.255,34.501L63.867,34.522L64.48,34.545L65.094,34.571L65.709,34.599L66.326,34.628L66.943,34.659L67.356,34.682L67.768,34.705L68.179,34.729L68.59,34.753L69,34.779L69.409,34.806L69.818,34.833L70.225,34.862L70.632,34.891L71.039,34.921L71.445,34.953L71.849,34.985L72.254,35.018L72.657,35.051L73.06,35.086L73.462,35.122L73.863,35.158L74.263,35.195L74.663,35.233L75.062,35.272L75.46,35.312L75.857,35.353L76.253,35.395L76.649,35.437L77.043,35.48L77.437,35.524L77.83,35.569L78.223,35.615L78.614,35.662L79.004,35.709L79.394,35.757L79.783,35.807L80.17,35.856L80.557,35.907L80.943,35.959L81.329,36.011L81.713,36.064L82.096,36.118L82.478,36.173L82.86,36.229L83.24,36.285L83.62,36.342L83.998,36.4L84.376,36.459L84.752,36.518L85.128,36.579L85.503,36.64L85.876,36.702L86.249,36.764L86.621,36.828L86.991,36.892L87.361,36.957L87.729,37.023L88.097,37.089L88.463,37.156L88.829,37.224L89.193,37.293L89.556,37.362L89.919,37.433L90.28,37.503L90.64,37.575L90.999,37.648L91.356,37.721L91.713,37.795L92.069,37.869L92.423,37.944L92.777,38.02L93.129,38.097L93.48,38.175L93.83,38.253L94.179,38.332L94.526,38.411L94.873,38.491L95.218,38.572L95.562,38.654L95.905,38.736L96.246,38.819L96.587,38.903L96.926,38.988L97.264,39.073L97.601,39.158L97.936,39.245L98.271,39.332L98.604,39.42L98.935,39.508L99.266,39.597L99.595,39.687L99.923,39.778L100.25,39.869L100.575,39.96L100.899,40.053L101.222,40.146L101.544,40.24L101.864,40.334L102.183,40.429L102.5,40.524L102.816,40.621L103.131,40.718L103.444,40.815L103.756,40.913L104.067,41.012L104.376,41.111L104.684,41.211L104.991,41.312L105.296,41.413L105.6,41.515L105.902,41.618L106.203,41.721L106.503,41.824L106.801,41.929L107.097,42.034L107.393,42.139L107.686,42.245L107.979,42.352L108.269,42.459L108.559,42.567L108.847,42.675L109.133,42.784L109.418,42.894L109.701,43.004L109.983,43.115L110.264,43.226L110.543,43.338L110.82,43.451L111.096,43.564L111.37,43.678L111.643,43.792L111.914,43.907L112.184,44.022L112.452,44.138L112.719,44.254L112.983,44.371L113.247,44.489L113.509,44.607L113.769,44.726L114.027,44.845L114.284,44.965L114.54,45.085L114.794,45.206L115.046,45.328L115.296,45.45L115.545,45.572L115.792,45.695L116.038,45.819L116.282,45.943L116.524,46.068L116.765,46.193L117.004,46.319L117.241,46.446L117.476,46.573L117.71,46.7L117.942,46.828L118.173,46.957L118.401,47.086L118.628,47.215L118.854,47.346L119.077,47.476L119.299,47.608L119.519,47.739L119.737,47.872L119.954,48.005L120.169,48.138L120.382,48.272L120.593,48.407L120.802,48.542L121.01,48.677L121.216,48.814L121.42,48.95L121.622,49.088L121.823,49.226L122.021,49.364L122.218,49.503L122.413,49.642L122.606,49.783L122.797,49.923L122.987,50.064L123.174,50.206L123.36,50.349L123.544,50.492L123.726,50.635L123.906,50.779L124.084,50.924L124.26,51.069L124.434,51.215L124.607,51.362L124.777,51.509L124.946,51.657L125.112,51.805L125.277,51.954L125.439,52.104L125.6,52.254L125.758,52.405L125.915,52.556L126.07,52.708L126.222,52.861L126.373,53.015L126.522,53.169L126.668,53.324L126.812,53.479L126.955,53.635L127.095,53.792L127.233,53.95L127.369,54.108L127.503,54.267L127.635,54.427L127.764,54.587L127.892,54.748L128.017,54.91L128.14,55.073L128.261,55.236L128.379,55.4L128.496,55.565L128.61,55.731L128.722,55.897L128.831,56.064L128.938,56.232L129.043,56.401L129.145,56.571L129.245,56.741L129.342,56.912L129.437,57.084L129.53,57.257L129.62,57.43L129.707,57.605L129.792,57.78L129.875,57.956L129.954,58.133L130.031,58.31L130.106,58.488L130.178,58.667L130.247,58.847L130.313,59.028L130.376,59.209L130.437,59.391L130.494,59.574L130.549,59.758L130.601,59.942L130.65,60.127L130.696,60.312L130.739,60.498L130.779,60.685L130.816,60.872L130.85,61.06L130.88,61.248L130.908,61.437L130.932,61.627L130.953,61.816L130.971,62.006L130.986,62.197L130.997,62.388L131.005,62.579L131.01,62.77L131.012,62.961L131.01,63.153L131.005,63.345L130.997,63.535L130.987,63.703L130.974,63.868L130.959,64.033L130.942,64.198L130.922,64.363L130.9,64.527L130.875,64.69L130.848,64.853L130.819,65.016L130.787,65.178L130.753,65.34L130.716,65.501L130.677,65.661L130.636,65.821L130.593,65.98L130.547,66.139L130.499,66.297L130.449,66.454L130.396,66.611L130.341,66.767L130.284,66.922L130.225,67.077L130.164,67.231L130.101,67.384L130.035,67.536L129.968,67.688L129.898,67.838L129.827,67.989L129.753,68.138L129.678,68.286L129.6,68.434L129.52,68.581L129.439,68.727L129.356,68.873L129.27,69.017L129.183,69.161L129.094,69.304L129.003,69.447L128.91,69.588L128.816,69.729L128.72,69.869L128.622,70.008L128.522,70.146L128.42,70.284L128.317,70.42L128.212,70.556L128.105,70.692L127.997,70.826L127.887,70.96L127.775,71.093L127.661,71.225L127.546,71.357L127.43,71.487L127.311,71.617L127.191,71.747L127.07,71.875L126.947,72.003L126.822,72.13L126.696,72.256L126.568,72.382L126.439,72.507L126.308,72.631L126.176,72.755L126.042,72.878L125.907,73L125.77,73.122L125.632,73.243L125.492,73.363L125.35,73.482L125.208,73.601L125.063,73.72L124.918,73.837L124.771,73.954L124.622,74.07L124.472,74.186L124.32,74.301L124.168,74.416L124.013,74.53L123.858,74.643L123.7,74.755L123.542,74.867L123.382,74.979L123.221,75.09L123.058,75.2L122.894,75.309L122.728,75.418L122.561,75.527L122.393,75.635L122.224,75.742L122.053,75.848L121.88,75.954L121.707,76.06L121.532,76.165L121.355,76.269L121.178,76.373L120.999,76.476L120.818,76.579L120.637,76.681L120.454,76.782L120.269,76.883L120.084,76.984L119.897,77.084L119.709,77.183L119.519,77.282L119.328,77.38L119.136,77.477L118.943,77.574L118.748,77.671L118.552,77.767L118.355,77.862L118.156,77.957L117.957,78.052L117.756,78.145L117.553,78.239L117.35,78.331L117.145,78.423L116.939,78.515L116.732,78.606L116.523,78.697L116.314,78.787L116.103,78.876L115.89,78.965L115.677,79.053L115.462,79.141L115.247,79.228L115.029,79.315L114.811,79.401L114.596,79.485L114.271,79.587L113.934,79.644L113.593,79.654L113.254,79.618L112.923,79.536L112.606,79.41L112.309,79.242L112.038,79.034L111.797,78.792L111.592,78.52L111.426,78.222L111.302,77.904L111.222,77.572L111.189,77.232L111.202,76.891L111.261,76.555L111.365,76.231L111.513,75.923L111.701,75.638L111.926,75.382L112.184,75.159L112.47,74.973L112.779,74.827L112.984,74.747L113.184,74.668L113.382,74.589L113.579,74.509L113.774,74.429L113.968,74.349L114.161,74.268L114.352,74.187L114.542,74.106L114.731,74.024L114.918,73.942L115.104,73.859L115.288,73.776L115.471,73.693L115.652,73.609L115.832,73.525L116.011,73.441L116.188,73.356L116.364,73.271L116.538,73.186L116.711,73.1L116.882,73.014L117.052,72.928L117.22,72.841L117.387,72.754L117.553,72.667L117.717,72.58L117.879,72.492L118.04,72.404L118.199,72.315L118.357,72.227L118.513,72.138L118.668,72.048L118.821,71.959L118.973,71.869L119.123,71.779L119.272,71.689L119.419,71.598L119.564,71.508L119.708,71.417L119.85,71.325L119.991,71.234L120.13,71.142L120.268,71.051L120.404,70.959L120.538,70.866L120.671,70.774L120.802,70.681L120.931,70.589L121.059,70.496L121.185,70.403L121.31,70.309L121.433,70.216L121.554,70.122L121.674,70.029L121.792,69.935L121.908,69.841L122.023,69.747L122.136,69.653L122.247,69.559L122.357,69.464L122.465,69.37L122.571,69.276L122.676,69.181L122.778,69.086L122.88,68.992L122.979,68.897L123.077,68.803L123.173,68.708L123.268,68.613L123.361,68.519L123.452,68.424L123.541,68.329L123.629,68.235L123.715,68.14L123.8,68.045L123.882,67.951L123.963,67.857L124.043,67.762L124.12,67.668L124.196,67.574L124.271,67.48L124.343,67.385L124.414,67.291L124.483,67.198L124.551,67.104L124.617,67.01L124.681,66.917L124.744,66.824L124.805,66.73L124.865,66.637L124.923,66.544L124.979,66.452L125.033,66.359L125.086,66.267L125.138,66.174L125.188,66.082L125.236,65.99L125.283,65.898L125.328,65.807L125.371,65.715L125.414,65.624L125.454,65.533L125.493,65.442L125.531,65.351L125.567,65.26L125.602,65.17L125.635,65.079L125.666,64.989L125.697,64.898L125.725,64.808L125.753,64.718L125.779,64.628L125.803,64.538L125.827,64.448L125.848,64.358L125.869,64.268L125.888,64.179L125.906,64.089L125.922,63.999L125.937,63.909L125.95,63.819L125.963,63.728L125.973,63.638L125.983,63.548L125.991,63.457L125.998,63.366L126.003,63.277L126.008,63.17L126.011,63.065L126.012,62.959L126.011,62.854L126.008,62.749L126.004,62.644L125.997,62.539L125.989,62.433L125.979,62.328L125.967,62.222L125.954,62.116L125.938,62.01L125.921,61.904L125.902,61.797L125.881,61.691L125.858,61.583L125.833,61.476L125.806,61.368L125.778,61.26L125.747,61.151L125.715,61.042L125.68,60.933L125.644,60.823L125.605,60.713L125.565,60.603L125.522,60.492L125.478,60.38L125.431,60.268L125.382,60.156L125.331,60.043L125.278,59.93L125.223,59.817L125.166,59.703L125.107,59.588L125.045,59.474L124.982,59.358L124.916,59.243L124.848,59.127L124.778,59.011L124.705,58.894L124.631,58.777L124.554,58.659L124.475,58.542L124.393,58.424L124.31,58.305L124.224,58.186L124.136,58.067L124.046,57.948L123.953,57.829L123.859,57.709L123.762,57.589L123.663,57.469L123.561,57.348L123.457,57.228L123.352,57.107L123.243,56.986L123.133,56.865L123.02,56.743L122.905,56.622L122.788,56.5L122.669,56.379L122.547,56.257L122.423,56.135L122.297,56.013L122.169,55.891L122.039,55.769L121.906,55.647L121.771,55.525L121.634,55.403L121.495,55.281L121.354,55.159L121.21,55.037L121.064,54.915L120.917,54.793L120.766,54.671L120.614,54.549L120.46,54.427L120.304,54.306L120.145,54.184L119.984,54.063L119.822,53.941L119.657,53.82L119.49,53.699L119.321,53.578L119.15,53.457L118.977,53.336L118.801,53.216L118.624,53.096L118.445,52.975L118.264,52.855L118.08,52.736L117.895,52.616L117.707,52.497L117.518,52.378L117.327,52.259L117.133,52.14L116.938,52.022L116.741,51.904L116.542,51.786L116.341,51.668L116.138,51.551L115.933,51.434L115.726,51.317L115.517,51.2L115.306,51.084L115.094,50.968L114.879,50.853L114.663,50.737L114.445,50.623L114.225,50.508L114.003,50.394L113.779,50.28L113.553,50.166L113.326,50.053L113.097,49.94L112.866,49.827L112.633,49.715L112.398,49.604L112.162,49.492L111.924,49.381L111.684,49.27L111.442,49.16L111.199,49.05L110.954,48.941L110.707,48.832L110.459,48.723L110.208,48.615L109.957,48.507L109.703,48.4L109.448,48.293L109.191,48.187L108.932,48.081L108.672,47.975L108.41,47.87L108.146,47.765L107.881,47.661L107.614,47.557L107.346,47.454L107.076,47.351L106.804,47.249L106.531,47.147L106.256,47.046L105.98,46.945L105.702,46.845L105.423,46.745L105.142,46.645L104.859,46.547L104.575,46.448L104.29,46.35L104.003,46.253L103.714,46.156L103.424,46.06L103.133,45.965L102.839,45.869L102.545,45.775L102.249,45.681L101.952,45.587L101.653,45.494L101.353,45.402L101.051,45.31L100.748,45.219L100.443,45.128L100.137,45.038L99.83,44.948L99.521,44.859L99.211,44.771L98.9,44.683L98.587,44.596L98.273,44.509L97.957,44.423L97.641,44.338L97.322,44.253L97.003,44.169L96.682,44.085L96.36,44.002L96.037,43.92L95.712,43.838L95.386,43.757L95.059,43.676L94.73,43.597L94.401,43.517L94.07,43.439L93.738,43.361L93.404,43.284L93.069,43.207L92.734,43.131L92.396,43.056L92.058,42.981L91.719,42.907L91.378,42.834L91.036,42.761L90.693,42.689L90.349,42.618L90.004,42.548L89.657,42.478L89.31,42.409L88.961,42.34L88.611,42.272L88.26,42.205L87.908,42.139L87.555,42.073L87.201,42.008L86.846,41.944L86.489,41.88L86.132,41.818L85.774,41.756L85.414,41.694L85.054,41.634L84.692,41.574L84.329,41.515L83.966,41.456L83.601,41.399L83.235,41.342L82.869,41.286L82.501,41.23L82.133,41.176L81.763,41.122L81.393,41.069L81.021,41.016L80.649,40.965L80.276,40.914L79.901,40.864L79.526,40.815L79.15,40.766L78.773,40.719L78.395,40.672L78.017,40.626L77.637,40.581L77.256,40.536L76.875,40.493L76.493,40.45L76.11,40.408L75.726,40.367L75.341,40.326L74.955,40.287L74.569,40.248L74.182,40.21L73.794,40.173L73.405,40.137L73.015,40.102L72.625,40.067L72.234,40.033L71.842,40.001L71.449,39.969L71.056,39.937L70.662,39.907L70.267,39.878L69.871,39.849L69.475,39.822L69.078,39.795L68.68,39.769L68.282,39.744L67.883,39.72L67.483,39.696L67.083,39.674L66.682,39.653L66.079,39.622L65.478,39.593L64.878,39.566L64.28,39.541L63.683,39.519L63.088,39.498L62.495,39.479L61.903,39.462L61.312,39.448L60.724,39.435L60.137,39.425L59.551,39.416L58.968,39.41L58.386,39.407L57.806,39.405L57.226,39.406L56.878,39.408L56.529,39.41L56.181,39.413L55.834,39.417L55.487,39.421L55.141,39.426L54.795,39.432L54.45,39.439L54.106,39.446L53.764,39.454L53.078,39.473L52.395,39.494L51.716,39.518L51.039,39.545L50.366,39.575L49.695,39.608L49.027,39.643L48.362,39.681L47.701,39.722L47.041,39.766L46.714,39.789L46.387,39.812L46.061,39.837L45.735,39.862L45.41,39.887L45.086,39.914L44.763,39.94L44.441,39.968L44.119,39.996L43.799,40.025L43.479,40.055L43.16,40.085L42.842,40.116L42.525,40.148L42.209,40.18L41.893,40.213L41.579,40.247L41.265,40.281L40.953,40.316L40.641,40.351L40.33,40.387L40.02,40.424L39.711,40.462L39.403,40.5L39.096,40.538L38.79,40.578L38.485,40.618L38.181,40.658L37.878,40.7L37.575,40.741L37.274,40.784L36.974,40.827L36.675,40.871L36.376,40.915L36.079,40.96L35.783,41.006L35.488,41.052L35.194,41.099L34.9,41.146L34.608,41.194L34.317,41.243L34.027,41.292L33.738,41.342L33.451,41.392L33.164,41.443L32.878,41.495L32.593,41.547L32.31,41.6L32.027,41.653L31.746,41.707L31.466,41.762L31.187,41.817L30.909,41.873L30.632,41.929L30.356,41.986L30.082,42.043L29.808,42.101L29.536,42.16L29.265,42.219L28.995,42.279L28.726,42.339L28.459,42.4L28.192,42.461L27.927,42.523L27.663,42.585L27.4,42.648L27.139,42.712L26.878,42.776L26.619,42.841L26.362,42.906L26.105,42.971L25.85,43.038L25.595,43.104L25.343,43.172L25.091,43.24L24.841,43.308L24.592,43.377L24.344,43.446L24.097,43.516L23.852,43.586L23.608,43.657L23.366,43.729L23.125,43.801L22.885,43.873L22.646,43.946L22.409,44.019L22.173,44.093L21.939,44.168L21.706,44.243L21.474,44.318L21.244,44.394L21.015,44.47L20.787,44.547L20.561,44.624L20.336,44.702L20.113,44.78L19.891,44.859L19.67,44.938L19.451,45.017L19.233,45.098L19.017,45.178L18.802,45.259L18.589,45.34L18.377,45.422L18.167,45.504L17.958,45.587L17.75,45.67L17.545,45.754L17.34,45.837L17.137,45.922L16.936,46.007L16.736,46.092L16.538,46.177L16.341,46.263L16.146,46.35L15.952,46.436L15.76,46.523L15.569,46.611L15.38,46.699L15.193,46.787L15.007,46.876L14.823,46.965L14.64,47.054L14.459,47.144L14.28,47.234L14.102,47.324L13.926,47.415L13.751,47.506L13.578,47.597L13.407,47.689L13.237,47.781L13.07,47.874L12.903,47.966L12.739,48.059L12.576,48.153L12.415,48.246L12.255,48.34L12.097,48.434L11.941,48.528L11.787,48.623L11.634,48.718L11.483,48.813L11.334,48.909L11.187,49.004L11.041,49.1L10.897,49.196L10.755,49.293L10.614,49.389L10.476,49.486L10.339,49.583L10.204,49.68L10.071,49.777L9.939,49.875L9.81,49.972L9.682,50.07L9.556,50.168L9.431,50.266L9.309,50.364L9.188,50.463L9.07,50.561L8.953,50.659L8.838,50.758L8.724,50.857L8.613,50.956L8.503,51.054L8.396,51.153L8.29,51.252L8.186,51.351L8.084,51.45L7.983,51.549L7.885,51.648L7.788,51.747L7.693,51.846L7.601,51.945L7.509,52.044L7.42,52.143L7.333,52.242L7.248,52.341L7.164,52.439L7.082,52.538L7.002,52.637L6.924,52.735L6.848,52.834L6.774,52.932L6.701,53.03L6.63,53.128L6.561,53.226L6.494,53.323L6.429,53.421L6.365,53.518L6.303,53.616L6.243,53.713L6.185,53.81L6.129,53.907L6.074,54.003L6.021,54.1L5.97,54.196L5.92,54.292L5.872,54.388L5.826,54.484L5.782,54.579L5.739,54.674L5.698,54.77L5.658,54.865L5.621,54.96L5.584,55.055L5.55,55.149L5.517,55.244L5.485,55.338L5.455,55.432L5.427,55.527L5.4,55.621L5.375,55.715L5.351,55.809L5.329,55.903L5.309,55.997L5.289,56.091L5.272,56.186L5.256,56.28L5.241,56.374L5.228,56.469L5.216,56.563L5.206,56.658L5.197,56.753L5.19,56.848L5.184,56.944L5.18,57.034L5.177,57.125L5.176,57.215L5.176,57.306L5.177,57.397L5.18,57.488L5.184,57.578L5.19,57.669L5.196,57.76L5.204,57.851L5.214,57.942L5.225,58.034L5.237,58.125L5.251,58.217L5.266,58.308L5.282,58.4L5.3,58.492L5.319,58.585L5.34,58.677L5.362,58.77L5.385,58.864L5.41,58.957L5.436,59.051L5.464,59.145L5.493,59.239L5.524,59.334L5.556,59.429L5.59,59.524L5.625,59.619L5.662,59.715L5.7,59.811L5.74,59.908L5.781,60.005L5.824,60.102L5.868,60.199L5.915,60.297L5.962,60.395L6.011,60.494L6.062,60.592L6.115,60.691L6.169,60.791L6.224,60.89L6.282,60.99L6.34,61.091L6.401,61.191L6.463,61.292L6.527,61.393L6.592,61.494L6.66,61.596L6.728,61.698L6.799,61.8L6.871,61.902L6.945,62.005L7.02,62.107L7.097,62.21L7.176,62.314L7.256,62.417L7.339,62.52L7.422,62.624L7.508,62.728L7.595,62.832L7.684,62.936L7.774,63.041L7.867,63.145L7.96,63.25L8.056,63.354L8.153,63.459L8.252,63.564L8.353,63.669L8.455,63.774L8.559,63.879L8.664,63.985L8.771,64.09L8.88,64.195L8.99,64.301L9.103,64.406L9.216,64.512L9.332,64.617L9.449,64.723L9.567,64.828L9.688,64.934L9.81,65.039L9.933,65.145L10.058,65.25L10.185,65.355L10.313,65.461L10.443,65.566L10.575,65.672L10.708,65.777L10.842,65.882L10.979,65.987L11.117,66.092L11.256,66.197L11.397,66.302L11.54,66.407L11.684,66.511L11.829,66.616L11.977,66.72L12.125,66.825L12.276,66.929L12.427,67.033L12.581,67.137L12.735,67.241L12.892,67.345L13.05,67.448L13.209,67.551L13.37,67.655L13.532,67.758L13.696,67.861L13.861,67.963L14.028,68.066L14.196,68.168L14.366,68.27L14.537,68.372L14.71,68.474L14.884,68.576L15.059,68.677L15.236,68.778L15.414,68.879L15.594,68.98L15.775,69.08L15.958,69.181L16.142,69.281L16.327,69.381L16.514,69.48L16.702,69.579L16.892,69.679L17.087,69.78L17.379,69.957L17.643,70.172L17.876,70.421L18.073,70.7L18.23,71.003L18.345,71.325L18.414,71.659L18.437,71.999L18.414,72.339L18.345,72.673L18.231,72.995L18.074,73.298L17.877,73.577L17.644,73.826L17.38,74.042L17.088,74.219L16.775,74.355L16.447,74.447L16.109,74.494L15.768,74.494L15.43,74.448L15.101,74.356L14.788,74.22L14.584,74.114L14.377,74.006L14.171,73.897L13.966,73.788L13.762,73.678L13.56,73.568L13.359,73.458L13.159,73.347L12.961,73.236L12.763,73.124L12.568,73.012L12.373,72.9L12.18,72.787L11.987,72.673L11.797,72.56L11.607,72.446L11.419,72.331L11.232,72.216L11.047,72.101L10.863,71.985L10.68,71.869L10.498,71.753L10.318,71.636L10.139,71.518L9.961,71.401L9.785,71.283L9.61,71.164L9.437,71.045L9.265,70.926L9.094,70.806L8.924,70.686L8.756,70.565L8.59,70.444L8.424,70.322L8.26,70.2L8.098,70.078L7.937,69.955L7.777,69.832L7.619,69.708L7.462,69.584L7.306,69.46L7.152,69.335L6.999,69.209L6.848,69.084L6.698,68.957L6.55,68.831L6.403,68.703L6.257,68.576L6.113,68.448L5.971,68.319L5.83,68.19L5.69,68.061L5.552,67.931L5.415,67.8L5.28,67.669L5.146,67.538L5.014,67.406L4.883,67.274L4.754,67.141L4.626,67.007L4.5,66.873L4.376,66.739L4.253,66.604L4.131,66.469L4.011,66.333L3.893,66.196L3.776,66.06L3.661,65.922L3.547,65.784L3.435,65.645L3.325,65.506L3.216,65.367L3.109,65.227L3.004,65.086L2.9,64.944L2.798,64.803L2.698,64.66L2.599,64.517L2.502,64.374L2.407,64.229L2.313,64.085L2.221,63.939L2.131,63.793L2.043,63.647L1.957,63.5L1.872,63.352L1.789,63.204L1.708,63.055L1.629,62.906L1.552,62.755L1.477,62.605L1.403,62.454L1.332,62.302L1.262,62.149L1.195,61.996L1.129,61.843L1.066,61.689L1.004,61.534L0.945,61.378L0.887,61.223L0.832,61.066L0.778,60.909L0.727,60.752L0.678,60.594L0.631,60.435L0.587,60.276L0.544,60.116L0.504,59.956L0.466,59.796L0.43,59.635L0.397,59.473L0.366,59.312L0.337,59.149L0.31,58.987L0.286,58.824L0.264,58.66L0.245,58.497L0.228,58.333L0.213,58.168L0.201,58.004L0.191,57.839L0.183,57.674L0.178,57.509L0.176,57.344L0.176,57.178L0.178,57.013L0.183,56.847L0.191,56.681L0.201,56.508L0.215,56.334L0.23,56.161L0.249,55.988L0.27,55.816L0.294,55.644L0.321,55.473L0.35,55.302L0.382,55.132L0.417,54.963L0.454,54.794L0.493,54.625L0.536,54.457L0.58,54.29L0.628,54.124L0.678,53.958L0.73,53.793L0.784,53.629L0.842,53.466L0.901,53.303L0.963,53.141L1.027,52.98L1.094,52.819L1.163,52.66L1.234,52.501L1.307,52.343L1.383,52.186L1.461,52.03L1.541,51.875L1.623,51.721L1.707,51.567L1.794,51.414L1.883,51.263L1.973,51.112L2.066,50.962L2.161,50.813L2.257,50.664L2.356,50.517L2.457,50.37L2.559,50.224L2.664,50.08L2.771,49.936L2.879,49.792L2.989,49.65L3.101,49.509L3.215,49.368L3.331,49.228L3.449,49.089L3.568,48.951L3.69,48.814L3.813,48.678L3.937,48.542L4.064,48.407L4.192,48.273L4.322,48.14L4.454,48.007L4.588,47.875L4.723,47.745L4.859,47.614L4.998,47.485L5.138,47.356L5.28,47.228L5.423,47.101L5.569,46.975L5.715,46.849L5.864,46.724L6.014,46.6L6.165,46.476L6.318,46.353L6.473,46.231L6.629,46.11L6.787,45.989L6.947,45.869L7.108,45.75L7.27,45.631L7.435,45.513L7.6,45.396L7.767,45.279L7.936,45.163L8.106,45.047L8.278,44.933L8.452,44.819L8.626,44.705L8.803,44.592L8.981,44.48L9.16,44.369L9.341,44.258L9.523,44.148L9.707,44.038L9.892,43.929L10.079,43.821L10.267,43.713L10.456,43.606L10.647,43.499L10.84,43.394L11.034,43.288L11.229,43.184L11.426,43.08L11.624,42.976L11.824,42.873L12.025,42.771L12.227,42.669L12.431,42.568L12.637,42.468L12.843,42.368L13.051,42.269L13.261,42.17L13.472,42.072L13.684,41.975L13.898,41.878L14.113,41.781L14.329,41.686L14.547,41.591L14.766,41.496L14.986,41.402L15.208,41.309L15.431,41.216L15.656,41.124L15.881,41.033L16.108,40.942L16.337,40.851L16.567,40.761L16.798,40.672L17.03,40.583L17.264,40.495L17.499,40.408L17.735,40.321L17.973,40.235L18.211,40.149L18.452,40.064L18.693,39.98L18.936,39.896L19.18,39.812L19.425,39.73L19.671,39.647L19.919,39.566L20.168,39.485L20.418,39.405L20.67,39.325L20.922,39.246L21.176,39.167L21.431,39.089L21.688,39.012L21.945,38.935L22.204,38.859L22.464,38.783L22.725,38.708L22.988,38.634L23.251,38.56L23.516,38.487L23.782,38.414L24.049,38.342L24.317,38.271L24.587,38.2L24.857,38.13L25.129,38.06L25.402,37.991L25.676,37.923L25.951,37.855L26.227,37.788L26.505,37.721L26.783,37.655L27.063,37.59L27.344,37.526L27.625,37.461L27.908,37.398L28.192,37.335L28.478,37.273L28.764,37.211L29.051,37.151L29.339,37.09L29.629,37.031L29.919,36.971L30.211,36.913L30.504,36.855L30.797,36.798L31.092,36.742L31.388,36.686L31.685,36.63L31.983,36.576L32.281,36.522L32.581,36.468L32.882,36.416L33.184,36.364L33.487,36.312L33.791,36.261L34.096,36.211L34.401,36.162L34.708,36.113L35.016,36.065L35.325,36.017L35.635,35.97L35.945,35.924L36.257,35.879L36.57,35.834L36.883,35.79L37.198,35.746L37.513,35.703L37.829,35.661L38.147,35.619L38.465,35.578L38.784,35.538L39.104,35.499L39.425,35.46L39.746,35.421L40.069,35.384L40.393,35.347L40.717,35.311L41.042,35.275L41.368,35.241L41.695,35.206L42.023,35.173L42.352,35.14L42.682,35.108L43.012,35.077L43.343,35.046L43.675,35.016L44.008,34.987L44.342,34.958L44.676,34.93L45.012,34.903L45.348,34.877L45.685,34.851L46.022,34.826L46.361,34.801L46.701,34.778L47.381,34.733L48.064,34.69L48.751,34.651L49.441,34.614L50.134,34.58L50.829,34.55L51.528,34.522L52.229,34.497L52.933,34.475L53.638,34.456L53.993,34.448L54.348,34.44L54.704,34.433L55.06,34.427L55.417,34.422L55.774,34.417L56.132,34.413L56.491,34.41L56.85,34.408L57.212,34.406L57.809,34.405L58.408,34.407Z" style="fill:white;"/>
        <path d="M41.339,0.502L41.476,0.504L41.613,0.507L41.75,0.511L41.887,0.517L42.025,0.524L42.162,0.532L42.3,0.542L42.438,0.553L42.576,0.565L42.714,0.579L42.852,0.593L42.991,0.609L43.129,0.627L43.268,0.645L43.407,0.665L43.546,0.686L43.685,0.709L43.824,0.732L43.963,0.757L44.103,0.783L44.242,0.81L44.382,0.838L44.521,0.868L44.661,0.898L44.801,0.93L44.941,0.963L45.081,0.997L45.221,1.032L45.362,1.069L45.502,1.106L45.643,1.145L45.783,1.185L45.924,1.226L46.065,1.268L46.206,1.311L46.347,1.355L46.488,1.401L46.63,1.447L46.771,1.494L46.913,1.543L47.054,1.593L47.196,1.643L47.338,1.695L47.48,1.748L47.622,1.802L47.764,1.857L47.906,1.913L48.049,1.97L48.191,2.028L48.334,2.087L48.477,2.147L48.619,2.209L48.762,2.271L48.906,2.334L49.049,2.398L49.192,2.463L49.335,2.53L49.479,2.597L49.623,2.665L49.766,2.734L49.91,2.805L50.054,2.876L50.198,2.948L50.343,3.021L50.487,3.095L50.634,3.172L50.921,3.324L51.21,3.481L51.501,3.642L51.791,3.807L52.082,3.975L52.374,4.148L52.666,4.324L52.959,4.504L53.251,4.687L53.545,4.874L53.839,5.065L54.133,5.26L54.428,5.458L54.723,5.66L55.019,5.866L55.315,6.075L55.611,6.288L55.908,6.504L56.205,6.724L56.503,6.947L56.801,7.174L57.099,7.404L57.398,7.638L57.697,7.875L57.996,8.115L58.296,8.36L58.59,8.602L58.829,8.826L59.035,9.079L59.207,9.358L59.342,9.656L59.436,9.969L59.489,10.292L59.498,10.619L59.466,10.944L59.391,11.262L59.275,11.568L59.12,11.856L58.929,12.121L58.705,12.36L58.452,12.566L58.173,12.739L57.875,12.873L57.562,12.967L57.239,13.02L56.913,13.029L56.587,12.997L56.269,12.922L55.963,12.806L55.675,12.651L55.41,12.46L55.127,12.227L54.852,12.003L54.578,11.782L54.304,11.565L54.031,11.352L53.759,11.142L53.488,10.936L53.218,10.734L52.949,10.535L52.682,10.34L52.415,10.148L52.149,9.96L51.884,9.776L51.621,9.596L51.358,9.42L51.097,9.247L50.837,9.078L50.579,8.913L50.321,8.752L50.065,8.594L49.811,8.441L49.557,8.291L49.306,8.145L49.055,8.003L48.806,7.865L48.559,7.731L48.31,7.599L48.19,7.537L48.068,7.474L47.947,7.413L47.826,7.352L47.705,7.292L47.585,7.233L47.465,7.176L47.345,7.119L47.226,7.063L47.108,7.008L46.99,6.955L46.872,6.902L46.755,6.85L46.638,6.799L46.522,6.749L46.406,6.701L46.29,6.653L46.175,6.606L46.061,6.56L45.947,6.515L45.834,6.471L45.721,6.428L45.608,6.387L45.496,6.346L45.385,6.306L45.274,6.267L45.163,6.229L45.053,6.192L44.944,6.156L44.835,6.121L44.727,6.087L44.619,6.054L44.512,6.022L44.405,5.991L44.299,5.961L44.193,5.932L44.088,5.904L43.984,5.877L43.88,5.851L43.776,5.826L43.674,5.801L43.571,5.778L43.47,5.756L43.369,5.735L43.268,5.714L43.169,5.695L43.069,5.676L42.971,5.659L42.873,5.642L42.775,5.627L42.679,5.612L42.582,5.598L42.487,5.585L42.392,5.574L42.298,5.563L42.204,5.553L42.111,5.543L42.018,5.535L41.927,5.528L41.835,5.522L41.745,5.516L41.655,5.511L41.566,5.508L41.477,5.505L41.389,5.503L41.301,5.502L41.215,5.502L41.129,5.502L41.043,5.504L40.958,5.506L40.874,5.509L40.79,5.513L40.707,5.518L40.625,5.524L40.537,5.531L40.45,5.539L40.363,5.548L40.278,5.558L40.193,5.569L40.109,5.58L40.026,5.593L39.943,5.606L39.862,5.62L39.781,5.635L39.7,5.651L39.621,5.668L39.541,5.686L39.463,5.705L39.385,5.724L39.308,5.745L39.231,5.766L39.155,5.788L39.08,5.811L39.005,5.835L38.93,5.86L38.856,5.886L38.782,5.913L38.709,5.94L38.636,5.969L38.563,5.998L38.491,6.029L38.419,6.06L38.348,6.093L38.277,6.126L38.206,6.161L38.137,6.195L38.042,6.245L37.949,6.295L37.858,6.347L37.767,6.4L37.677,6.455L37.588,6.511L37.5,6.57L37.413,6.629L37.327,6.691L37.241,6.754L37.156,6.818L37.072,6.885L36.989,6.953L36.906,7.023L36.824,7.095L36.743,7.168L36.662,7.243L36.582,7.32L36.503,7.399L36.424,7.48L36.346,7.563L36.268,7.648L36.191,7.734L36.115,7.823L36.04,7.913L35.965,8.006L35.891,8.1L35.817,8.196L35.744,8.295L35.672,8.395L35.6,8.498L35.53,8.602L35.459,8.709L35.39,8.818L35.321,8.929L35.253,9.041L35.186,9.156L35.119,9.273L35.054,9.393L34.989,9.514L34.925,9.637L34.861,9.762L34.799,9.89L34.737,10.02L34.676,10.151L34.616,10.285L34.557,10.421L34.499,10.559L34.442,10.699L34.385,10.841L34.33,10.985L34.275,11.131L34.221,11.28L34.169,11.43L34.117,11.582L34.066,11.737L34.016,11.893L33.968,12.052L33.92,12.212L33.873,12.374L33.827,12.539L33.783,12.705L33.739,12.874L33.696,13.044L33.655,13.216L33.614,13.39L33.575,13.567L33.536,13.745L33.499,13.925L33.463,14.106L33.428,14.29L33.394,14.476L33.361,14.663L33.329,14.852L33.298,15.043L33.269,15.236L33.241,15.431L33.213,15.628L33.187,15.826L33.162,16.026L33.138,16.228L33.116,16.432L33.094,16.637L33.074,16.844L33.055,17.053L33.037,17.264L33.02,17.476L33.004,17.69L32.99,17.905L32.976,18.123L32.964,18.342L32.953,18.562L32.944,18.784L32.935,19.008L32.928,19.234L32.921,19.461L32.916,19.689L32.913,19.919L32.91,20.151L32.909,20.384L32.908,20.619L32.909,20.855L32.912,21.093L32.915,21.333L32.92,21.573L32.926,21.816L32.933,22.059L32.941,22.305L32.95,22.551L32.961,22.8L32.973,23.049L32.986,23.3L33,23.553L33.016,23.806L33.033,24.062L33.051,24.318L33.07,24.576L33.09,24.835L33.112,25.096L33.135,25.358L33.159,25.621L33.184,25.886L33.21,26.152L33.238,26.419L33.267,26.688L33.297,26.958L33.328,27.229L33.361,27.501L33.395,27.775L33.43,28.049L33.466,28.325L33.503,28.603L33.542,28.881L33.582,29.161L33.623,29.442L33.665,29.724L33.708,30.007L33.753,30.291L33.799,30.577L33.846,30.863L33.894,31.151L33.944,31.44L33.995,31.73L34.047,32.021L34.1,32.313L34.154,32.606L34.21,32.901L34.266,33.196L34.324,33.493L34.384,33.79L34.444,34.089L34.506,34.388L34.568,34.689L34.632,34.99L34.698,35.293L34.764,35.597L34.832,35.901L34.9,36.207L34.97,36.513L35.042,36.821L35.114,37.129L35.188,37.438L35.262,37.749L35.338,38.06L35.416,38.372L35.494,38.685L35.574,38.999L35.654,39.313L35.736,39.629L35.819,39.945L35.904,40.263L35.989,40.581L36.076,40.9L36.164,41.22L36.253,41.54L36.343,41.862L36.435,42.184L36.527,42.507L36.621,42.831L36.716,43.156L36.813,43.481L36.91,43.807L37.008,44.134L37.108,44.462L37.209,44.79L37.311,45.119L37.414,45.449L37.519,45.779L37.624,46.11L37.731,46.442L37.839,46.775L37.948,47.108L38.059,47.442L38.17,47.776L38.283,48.111L38.397,48.447L38.511,48.784L38.628,49.121L38.745,49.458L38.863,49.797L38.983,50.135L39.104,50.475L39.226,50.815L39.349,51.155L39.473,51.496L39.598,51.838L39.725,52.18L39.853,52.523L39.982,52.866L40.112,53.21L40.243,53.554L40.375,53.899L40.509,54.244L40.643,54.59L40.779,54.936L40.916,55.282L41.054,55.629L41.193,55.977L41.334,56.325L41.475,56.673L41.618,57.022L41.762,57.371L41.906,57.721L42.053,58.071L42.2,58.421L42.348,58.772L42.498,59.123L42.648,59.475L42.8,59.827L42.953,60.179L43.107,60.531L43.262,60.884L43.418,61.237L43.576,61.591L43.734,61.944L43.894,62.298L44.054,62.653L44.216,63.007L44.379,63.362L44.544,63.717L44.709,64.073L44.875,64.428L45.043,64.784L45.211,65.14L45.381,65.496L45.552,65.853L45.724,66.21L45.897,66.567L46.071,66.924L46.246,67.281L46.423,67.638L46.6,67.996L46.779,68.353L46.959,68.711L47.139,69.069L47.321,69.427L47.504,69.785L47.687,70.142L47.871,70.497L48.056,70.852L48.241,71.206L48.426,71.559L48.612,71.91L48.798,72.261L48.985,72.611L49.173,72.96L49.361,73.308L49.549,73.654L49.738,74L49.928,74.345L50.117,74.688L50.308,75.031L50.499,75.372L50.69,75.713L50.882,76.052L51.074,76.391L51.266,76.728L51.459,77.064L51.653,77.399L51.846,77.733L52.041,78.066L52.235,78.398L52.43,78.728L52.626,79.058L52.821,79.386L53.018,79.714L53.214,80.04L53.411,80.365L53.608,80.689L53.806,81.012L54.004,81.333L54.202,81.654L54.401,81.973L54.6,82.291L54.799,82.608L54.998,82.924L55.198,83.238L55.398,83.551L55.599,83.863L55.8,84.174L56.001,84.484L56.202,84.792L56.404,85.1L56.605,85.406L56.807,85.71L57.01,86.014L57.212,86.316L57.415,86.617L57.618,86.917L57.822,87.215L58.025,87.513L58.229,87.809L58.433,88.103L58.637,88.397L58.841,88.689L59.046,88.979L59.25,89.269L59.455,89.557L59.66,89.844L59.865,90.129L60.071,90.413L60.276,90.696L60.482,90.977L60.687,91.257L60.893,91.536L61.099,91.814L61.305,92.09L61.511,92.364L61.718,92.637L61.924,92.909L62.131,93.18L62.337,93.449L62.544,93.716L62.751,93.983L62.957,94.248L63.164,94.511L63.371,94.773L63.578,95.033L63.785,95.292L63.992,95.55L64.199,95.806L64.406,96.061L64.613,96.314L64.82,96.566L65.027,96.816L65.234,97.065L65.441,97.313L65.648,97.559L65.855,97.803L66.062,98.046L66.269,98.287L66.476,98.527L66.682,98.765L66.889,99.002L67.096,99.237L67.302,99.471L67.509,99.703L67.715,99.934L67.921,100.163L68.127,100.39L68.333,100.616L68.539,100.84L68.745,101.063L68.951,101.284L69.156,101.504L69.361,101.722L69.567,101.938L69.772,102.153L69.976,102.366L70.181,102.577L70.385,102.787L70.59,102.995L70.794,103.202L70.998,103.407L71.201,103.61L71.405,103.812L71.608,104.012L71.811,104.21L72.014,104.407L72.216,104.601L72.418,104.795L72.62,104.986L72.822,105.176L73.023,105.364L73.224,105.55L73.425,105.735L73.625,105.918L73.825,106.099L74.025,106.279L74.225,106.456L74.424,106.632L74.622,106.806L74.821,106.979L75.019,107.15L75.217,107.318L75.414,107.486L75.611,107.651L75.807,107.814L76.003,107.976L76.199,108.136L76.394,108.294L76.589,108.45L76.783,108.605L76.977,108.758L77.171,108.908L77.364,109.057L77.556,109.205L77.748,109.35L77.939,109.493L78.13,109.635L78.321,109.775L78.511,109.912L78.7,110.048L78.889,110.182L79.077,110.315L79.265,110.445L79.452,110.573L79.639,110.7L79.825,110.824L80.01,110.947L80.195,111.068L80.379,111.187L80.562,111.304L80.745,111.419L80.927,111.532L81.109,111.643L81.29,111.752L81.47,111.859L81.649,111.964L81.828,112.068L82.006,112.169L82.183,112.268L82.359,112.366L82.535,112.461L82.71,112.555L82.884,112.646L83.057,112.736L83.23,112.823L83.402,112.909L83.572,112.992L83.742,113.074L83.912,113.153L84.08,113.231L84.247,113.306L84.414,113.38L84.579,113.452L84.744,113.521L84.908,113.589L85.07,113.654L85.232,113.718L85.393,113.78L85.553,113.839L85.711,113.897L85.869,113.952L86.026,114.006L86.182,114.058L86.336,114.107L86.49,114.155L86.642,114.201L86.794,114.245L86.944,114.286L87.093,114.326L87.241,114.364L87.388,114.4L87.534,114.434L87.678,114.466L87.822,114.496L87.964,114.524L88.105,114.55L88.245,114.575L88.383,114.597L88.521,114.618L88.657,114.636L88.792,114.653L88.926,114.668L89.058,114.681L89.189,114.693L89.319,114.702L89.448,114.71L89.575,114.716L89.701,114.72L89.826,114.722L89.95,114.723L90.072,114.722L90.194,114.719L90.314,114.714L90.432,114.708L90.55,114.7L90.666,114.691L90.781,114.679L90.895,114.666L91.008,114.652L91.12,114.636L91.23,114.618L91.34,114.598L91.448,114.577L91.555,114.555L91.661,114.53L91.766,114.505L91.871,114.477L91.974,114.448L92.076,114.418L92.177,114.385L92.278,114.352L92.377,114.316L92.476,114.279L92.574,114.24L92.671,114.2L92.767,114.158L92.863,114.115L92.958,114.069L93.053,114.022L93.142,113.975L93.231,113.927L93.319,113.878L93.407,113.827L93.493,113.774L93.579,113.72L93.663,113.665L93.748,113.608L93.831,113.549L93.913,113.489L93.995,113.427L94.077,113.364L94.157,113.3L94.237,113.233L94.316,113.165L94.395,113.096L94.473,113.024L94.55,112.951L94.627,112.877L94.703,112.8L94.779,112.722L94.854,112.642L94.928,112.561L95.002,112.477L95.075,112.392L95.148,112.305L95.22,112.216L95.291,112.126L95.362,112.033L95.432,111.939L95.501,111.842L95.57,111.744L95.639,111.644L95.706,111.542L95.773,111.438L95.84,111.333L95.905,111.225L95.97,111.115L96.034,111.004L96.098,110.89L96.161,110.775L96.223,110.657L96.284,110.538L96.345,110.417L96.405,110.294L96.464,110.168L96.522,110.041L96.58,109.912L96.636,109.781L96.692,109.649L96.747,109.514L96.801,109.377L96.855,109.239L96.907,109.098L96.959,108.956L97.01,108.811L97.06,108.665L97.109,108.517L97.157,108.367L97.204,108.215L97.25,108.062L97.295,107.906L97.34,107.749L97.383,107.59L97.425,107.429L97.467,107.266L97.507,107.101L97.547,106.935L97.585,106.767L97.623,106.597L97.66,106.425L97.695,106.252L97.73,106.076L97.763,105.899L97.796,105.721L97.827,105.54L97.857,105.358L97.887,105.174L97.915,104.989L97.942,104.802L97.969,104.613L97.994,104.422L98.018,104.23L98.041,104.036L98.063,103.841L98.084,103.644L98.104,103.445L98.123,103.245L98.14,103.043L98.157,102.84L98.173,102.635L98.187,102.428L98.2,102.22L98.213,102.011L98.224,101.8L98.234,101.587L98.243,101.373L98.251,101.157L98.258,100.94L98.263,100.722L98.268,100.502L98.271,100.28L98.274,100.057L98.275,99.833L98.275,99.607L98.274,99.38L98.272,99.151L98.269,98.921L98.264,98.69L98.259,98.457L98.252,98.223L98.245,97.988L98.236,97.751L98.226,97.513L98.215,97.273L98.203,97.032L98.189,96.79L98.175,96.547L98.159,96.302L98.143,96.056L98.125,95.809L98.106,95.561L98.086,95.311L98.065,95.06L98.043,94.808L98.019,94.554L97.995,94.3L97.969,94.044L97.942,93.787L97.914,93.528L97.885,93.269L97.855,93.008L97.824,92.746L97.792,92.484L97.758,92.22L97.723,91.954L97.688,91.688L97.651,91.421L97.613,91.152L97.574,90.882L97.533,90.612L97.492,90.34L97.45,90.067L97.406,89.793L97.361,89.518L97.315,89.242L97.268,88.965L97.22,88.686L97.171,88.407L97.121,88.127L97.069,87.846L97.017,87.564L96.963,87.28L96.908,86.996L96.852,86.711L96.795,86.425L96.737,86.138L96.678,85.85L96.617,85.561L96.556,85.271L96.493,84.98L96.43,84.688L96.365,84.396L96.299,84.102L96.232,83.808L96.164,83.512L96.094,83.216L96.024,82.919L95.953,82.621L95.88,82.322L95.806,82.023L95.732,81.722L95.656,81.421L95.579,81.119L95.501,80.816L95.421,80.512L95.341,80.208L95.26,79.903L95.177,79.596L95.094,79.29L95.009,78.982L94.923,78.674L94.836,78.364L94.748,78.055L94.659,77.744L94.569,77.433L94.478,77.121L94.385,76.808L94.292,76.494L94.197,76.18L94.102,75.865L94.005,75.55L93.907,75.234L93.808,74.917L93.708,74.599L93.607,74.281L93.505,73.963L93.402,73.643L93.298,73.323L93.192,73.003L93.086,72.681L92.978,72.359L92.87,72.037L92.76,71.714L92.649,71.39L92.537,71.066L92.424,70.742L92.31,70.416L92.195,70.09L92.079,69.764L91.962,69.437L91.843,69.11L91.724,68.782L91.604,68.453L91.482,68.125L91.359,67.795L91.236,67.465L91.111,67.135L90.985,66.804L90.858,66.473L90.731,66.141L90.602,65.809L90.472,65.476L90.34,65.143L90.208,64.81L90.075,64.476L89.941,64.141L89.805,63.807L89.669,63.471L89.532,63.136L89.393,62.8L89.254,62.464L89.113,62.127L88.971,61.79L88.829,61.453L88.685,61.115L88.54,60.777L88.394,60.439L88.247,60.1L88.099,59.761L87.95,59.422L87.8,59.083L87.649,58.743L87.497,58.403L87.344,58.062L87.19,57.722L87.035,57.381L86.878,57.04L86.721,56.698L86.563,56.357L86.403,56.015L86.243,55.673L86.082,55.331L85.919,54.988L85.756,54.646L85.59,54.3L85.468,53.997L85.387,53.68L85.347,53.355L85.351,53.028L85.397,52.705L85.485,52.39L85.614,52.089L85.78,51.807L85.982,51.55L86.216,51.321L86.477,51.125L86.762,50.965L87.066,50.843L87.382,50.761L87.707,50.722L88.034,50.726L88.358,50.772L88.673,50.86L88.973,50.988L89.255,51.155L89.512,51.357L89.741,51.59L89.937,51.852L90.098,52.137L90.266,52.487L90.434,52.84L90.601,53.193L90.768,53.545L90.933,53.897L91.097,54.249L91.26,54.601L91.422,54.952L91.583,55.304L91.743,55.655L91.901,56.006L92.059,56.356L92.216,56.707L92.372,57.057L92.526,57.407L92.68,57.756L92.832,58.105L92.984,58.454L93.134,58.803L93.283,59.152L93.431,59.5L93.578,59.847L93.725,60.195L93.87,60.542L94.013,60.889L94.156,61.235L94.298,61.581L94.439,61.927L94.578,62.272L94.717,62.617L94.854,62.962L94.991,63.306L95.126,63.65L95.261,63.994L95.394,64.337L95.526,64.679L95.657,65.022L95.787,65.363L95.916,65.705L96.043,66.046L96.17,66.386L96.296,66.726L96.42,67.066L96.544,67.405L96.666,67.744L96.787,68.082L96.908,68.419L97.027,68.757L97.145,69.093L97.262,69.429L97.377,69.765L97.492,70.1L97.606,70.435L97.718,70.769L97.83,71.102L97.94,71.435L98.05,71.768L98.158,72.1L98.265,72.431L98.371,72.762L98.476,73.092L98.579,73.421L98.682,73.75L98.784,74.078L98.884,74.406L98.983,74.733L99.082,75.06L99.179,75.386L99.275,75.711L99.37,76.035L99.464,76.359L99.556,76.683L99.648,77.005L99.738,77.327L99.828,77.648L99.916,77.969L100.003,78.289L100.089,78.608L100.174,78.926L100.258,79.244L100.341,79.561L100.422,79.877L100.503,80.193L100.582,80.508L100.66,80.822L100.737,81.135L100.813,81.448L100.888,81.76L100.962,82.071L101.034,82.381L101.106,82.691L101.176,82.999L101.245,83.307L101.313,83.614L101.38,83.921L101.446,84.226L101.51,84.531L101.574,84.835L101.636,85.138L101.697,85.44L101.757,85.741L101.816,86.042L101.874,86.341L101.931,86.64L101.986,86.938L102.041,87.235L102.094,87.531L102.146,87.826L102.197,88.121L102.246,88.414L102.295,88.707L102.342,88.998L102.389,89.289L102.434,89.579L102.478,89.868L102.521,90.156L102.562,90.443L102.603,90.729L102.642,91.014L102.68,91.298L102.717,91.581L102.753,91.863L102.788,92.144L102.821,92.425L102.853,92.704L102.885,92.982L102.914,93.259L102.943,93.535L102.971,93.811L102.997,94.085L103.022,94.358L103.046,94.63L103.069,94.901L103.091,95.171L103.111,95.44L103.131,95.708L103.149,95.975L103.166,96.241L103.181,96.506L103.196,96.769L103.209,97.032L103.221,97.293L103.232,97.554L103.242,97.813L103.25,98.071L103.257,98.329L103.263,98.585L103.268,98.84L103.272,99.093L103.274,99.346L103.275,99.598L103.275,99.848L103.273,100.097L103.271,100.345L103.267,100.592L103.262,100.838L103.256,101.083L103.248,101.327L103.239,101.569L103.229,101.81L103.218,102.05L103.205,102.289L103.191,102.527L103.176,102.763L103.159,102.998L103.142,103.232L103.123,103.465L103.102,103.697L103.081,103.927L103.058,104.157L103.033,104.385L103.008,104.612L102.981,104.837L102.953,105.061L102.923,105.285L102.893,105.506L102.86,105.727L102.827,105.947L102.792,106.165L102.756,106.382L102.718,106.597L102.679,106.811L102.639,107.025L102.597,107.236L102.554,107.447L102.509,107.656L102.464,107.864L102.416,108.071L102.367,108.276L102.317,108.48L102.266,108.683L102.212,108.884L102.158,109.085L102.102,109.283L102.044,109.481L101.985,109.677L101.925,109.872L101.863,110.065L101.799,110.257L101.734,110.448L101.668,110.637L101.6,110.825L101.53,111.012L101.459,111.197L101.386,111.381L101.311,111.563L101.235,111.744L101.157,111.924L101.078,112.102L100.997,112.278L100.914,112.454L100.83,112.627L100.744,112.799L100.656,112.97L100.566,113.139L100.475,113.307L100.382,113.473L100.288,113.637L100.191,113.8L100.093,113.961L99.993,114.121L99.891,114.279L99.787,114.435L99.682,114.59L99.574,114.743L99.465,114.894L99.354,115.043L99.241,115.191L99.126,115.337L99.01,115.481L98.891,115.623L98.771,115.763L98.649,115.901L98.524,116.038L98.398,116.172L98.27,116.304L98.14,116.435L98.008,116.563L97.875,116.689L97.739,116.813L97.602,116.934L97.462,117.054L97.321,117.171L97.178,117.286L97.033,117.399L96.886,117.509L96.738,117.617L96.587,117.723L96.435,117.826L96.281,117.927L96.126,118.025L95.968,118.121L95.81,118.214L95.649,118.304L95.486,118.392L95.322,118.478L95.151,118.563L94.977,118.646L94.803,118.725L94.627,118.802L94.451,118.875L94.273,118.945L94.094,119.013L93.914,119.077L93.733,119.138L93.551,119.195L93.368,119.25L93.184,119.302L93,119.35L92.814,119.396L92.628,119.438L92.441,119.478L92.254,119.514L92.065,119.548L91.877,119.578L91.687,119.606L91.497,119.63L91.307,119.652L91.116,119.671L90.924,119.686L90.732,119.699L90.54,119.709L90.347,119.717L90.154,119.721L89.96,119.723L89.766,119.722L89.572,119.718L89.378,119.712L89.183,119.703L88.987,119.691L88.792,119.677L88.596,119.66L88.4,119.641L88.204,119.619L88.007,119.594L87.81,119.567L87.613,119.538L87.416,119.506L87.218,119.471L87.021,119.434L86.823,119.395L86.624,119.354L86.426,119.31L86.227,119.263L86.028,119.215L85.829,119.164L85.63,119.111L85.43,119.055L85.231,118.997L85.031,118.937L84.83,118.875L84.63,118.811L84.429,118.744L84.229,118.676L84.028,118.605L83.826,118.532L83.625,118.457L83.423,118.379L83.221,118.3L83.019,118.218L82.816,118.135L82.614,118.049L82.411,117.961L82.208,117.872L82.004,117.78L81.801,117.686L81.597,117.59L81.393,117.492L81.188,117.392L80.984,117.29L80.779,117.186L80.574,117.081L80.369,116.973L80.163,116.863L79.958,116.751L79.752,116.638L79.546,116.522L79.339,116.404L79.133,116.285L78.926,116.163L78.719,116.04L78.511,115.915L78.304,115.788L78.096,115.659L77.888,115.528L77.68,115.395L77.471,115.261L77.262,115.124L77.053,114.986L76.844,114.846L76.635,114.704L76.425,114.56L76.215,114.414L76.005,114.267L75.795,114.118L75.585,113.967L75.374,113.814L75.163,113.659L74.952,113.503L74.741,113.344L74.529,113.184L74.317,113.022L74.106,112.859L73.893,112.693L73.681,112.526L73.469,112.357L73.256,112.187L73.043,112.014L72.83,111.84L72.617,111.665L72.404,111.487L72.19,111.308L71.977,111.127L71.763,110.944L71.549,110.76L71.335,110.574L71.12,110.386L70.906,110.196L70.692,110.005L70.477,109.812L70.262,109.618L70.047,109.422L69.832,109.224L69.617,109.024L69.401,108.823L69.186,108.62L68.971,108.416L68.755,108.21L68.539,108.002L68.323,107.793L68.107,107.582L67.891,107.369L67.675,107.155L67.459,106.94L67.243,106.722L67.027,106.503L66.81,106.283L66.594,106.061L66.377,105.837L66.161,105.612L65.944,105.385L65.728,105.156L65.511,104.926L65.294,104.695L65.078,104.462L64.861,104.227L64.644,103.991L64.428,103.754L64.211,103.514L63.994,103.274L63.777,103.031L63.561,102.788L63.344,102.543L63.127,102.296L62.911,102.048L62.694,101.798L62.477,101.547L62.261,101.294L62.044,101.04L61.828,100.784L61.611,100.527L61.395,100.269L61.179,100.009L60.962,99.747L60.746,99.484L60.53,99.22L60.314,98.954L60.098,98.687L59.883,98.418L59.667,98.148L59.451,97.877L59.236,97.604L59.021,97.33L58.805,97.054L58.59,96.777L58.375,96.499L58.161,96.219L57.946,95.938L57.732,95.656L57.517,95.372L57.303,95.087L57.089,94.8L56.875,94.512L56.662,94.223L56.448,93.932L56.235,93.64L56.022,93.347L55.809,93.052L55.596,92.756L55.384,92.459L55.172,92.161L54.959,91.861L54.748,91.56L54.536,91.257L54.325,90.954L54.114,90.649L53.903,90.343L53.692,90.035L53.482,89.726L53.272,89.416L53.062,89.105L52.853,88.793L52.644,88.479L52.435,88.164L52.226,87.848L52.018,87.53L51.81,87.212L51.603,86.892L51.395,86.571L51.188,86.248L50.982,85.925L50.775,85.6L50.569,85.274L50.364,84.947L50.158,84.619L49.953,84.29L49.749,83.959L49.545,83.627L49.341,83.295L49.137,82.961L48.934,82.625L48.732,82.289L48.53,81.952L48.328,81.613L48.126,81.273L47.925,80.933L47.725,80.591L47.525,80.248L47.325,79.904L47.126,79.558L46.927,79.212L46.729,78.865L46.531,78.516L46.333,78.167L46.136,77.816L45.94,77.464L45.744,77.112L45.548,76.758L45.353,76.403L45.159,76.047L44.965,75.69L44.771,75.332L44.579,74.973L44.386,74.613L44.194,74.252L44.003,73.89L43.812,73.527L43.622,73.163L43.432,72.798L43.243,72.432L43.054,72.065L42.866,71.697L42.679,71.329L42.493,70.961L42.308,70.592L42.124,70.224L41.942,69.856L41.76,69.489L41.58,69.121L41.4,68.754L41.222,68.386L41.045,68.019L40.869,67.652L40.695,67.285L40.521,66.919L40.349,66.552L40.177,66.186L40.007,65.82L39.838,65.455L39.67,65.089L39.504,64.724L39.338,64.359L39.174,63.994L39.01,63.63L38.848,63.266L38.687,62.902L38.527,62.538L38.369,62.175L38.211,61.812L38.055,61.449L37.899,61.087L37.745,60.725L37.592,60.363L37.441,60.002L37.29,59.641L37.14,59.28L36.992,58.92L36.845,58.56L36.699,58.201L36.554,57.842L36.41,57.483L36.268,57.125L36.127,56.767L35.986,56.41L35.847,56.053L35.709,55.696L35.573,55.34L35.437,54.985L35.303,54.629L35.17,54.275L35.038,53.921L34.907,53.567L34.777,53.214L34.649,52.861L34.521,52.509L34.395,52.157L34.27,51.806L34.146,51.455L34.024,51.105L33.902,50.756L33.782,50.407L33.663,50.058L33.545,49.71L33.429,49.363L33.313,49.016L33.199,48.67L33.086,48.325L32.974,47.98L32.863,47.636L32.753,47.292L32.645,46.949L32.538,46.607L32.432,46.265L32.327,45.924L32.223,45.584L32.121,45.244L32.02,44.905L31.92,44.567L31.821,44.229L31.723,43.892L31.627,43.556L31.531,43.22L31.437,42.886L31.345,42.552L31.253,42.218L31.163,41.886L31.073,41.554L30.985,41.223L30.899,40.893L30.813,40.563L30.729,40.235L30.646,39.907L30.564,39.579L30.483,39.253L30.403,38.928L30.325,38.603L30.248,38.279L30.172,37.956L30.098,37.634L30.024,37.313L29.952,36.992L29.881,36.673L29.811,36.354L29.743,36.036L29.676,35.719L29.61,35.403L29.545,35.088L29.481,34.774L29.419,34.46L29.358,34.148L29.298,33.836L29.239,33.526L29.182,33.216L29.126,32.908L29.071,32.6L29.017,32.293L28.965,31.987L28.914,31.683L28.864,31.379L28.815,31.076L28.768,30.774L28.721,30.473L28.676,30.173L28.633,29.875L28.59,29.577L28.549,29.28L28.509,28.985L28.471,28.69L28.433,28.396L28.397,28.104L28.362,27.812L28.329,27.522L28.297,27.233L28.266,26.944L28.236,26.657L28.207,26.371L28.18,26.086L28.154,25.802L28.13,25.52L28.106,25.238L28.084,24.957L28.064,24.678L28.044,24.4L28.026,24.123L28.009,23.847L27.993,23.572L27.979,23.298L27.966,23.026L27.954,22.755L27.944,22.485L27.935,22.216L27.927,21.948L27.921,21.682L27.916,21.416L27.912,21.152L27.91,20.889L27.908,20.628L27.909,20.367L27.91,20.108L27.913,19.85L27.917,19.593L27.923,19.338L27.93,19.084L27.938,18.831L27.948,18.579L27.959,18.329L27.971,18.079L27.985,17.831L28,17.585L28.016,17.34L28.034,17.095L28.054,16.853L28.074,16.611L28.096,16.371L28.12,16.132L28.145,15.895L28.171,15.659L28.199,15.424L28.228,15.19L28.258,14.958L28.29,14.727L28.324,14.498L28.359,14.27L28.395,14.043L28.433,13.817L28.472,13.593L28.513,13.37L28.555,13.149L28.599,12.929L28.644,12.711L28.691,12.493L28.74,12.278L28.789,12.063L28.841,11.85L28.894,11.639L28.948,11.428L29.004,11.22L29.062,11.012L29.121,10.807L29.182,10.602L29.245,10.399L29.309,10.198L29.375,9.998L29.442,9.799L29.511,9.602L29.582,9.406L29.654,9.212L29.729,9.02L29.804,8.829L29.882,8.639L29.961,8.451L30.043,8.265L30.125,8.08L30.21,7.896L30.297,7.715L30.385,7.535L30.475,7.356L30.567,7.179L30.661,7.004L30.757,6.831L30.854,6.659L30.954,6.489L31.055,6.32L31.159,6.154L31.264,5.989L31.371,5.826L31.48,5.665L31.592,5.505L31.705,5.348L31.82,5.192L31.937,5.038L32.057,4.887L32.178,4.737L32.301,4.589L32.427,4.444L32.554,4.3L32.684,4.159L32.815,4.019L32.949,3.882L33.084,3.747L33.222,3.615L33.362,3.484L33.503,3.356L33.647,3.231L33.793,3.107L33.941,2.987L34.091,2.868L34.242,2.753L34.396,2.639L34.552,2.529L34.71,2.421L34.869,2.315L35.031,2.213L35.194,2.113L35.359,2.016L35.526,1.921L35.695,1.83L35.863,1.742L35.994,1.676L36.123,1.614L36.253,1.553L36.384,1.493L36.515,1.436L36.648,1.38L36.78,1.326L36.914,1.274L37.047,1.223L37.182,1.174L37.317,1.127L37.452,1.082L37.588,1.039L37.725,0.997L37.862,0.957L37.999,0.919L38.137,0.882L38.276,0.848L38.414,0.815L38.554,0.783L38.693,0.754L38.833,0.726L38.973,0.7L39.114,0.675L39.255,0.652L39.396,0.631L39.538,0.612L39.68,0.594L39.822,0.577L39.965,0.563L40.107,0.55L40.25,0.538L40.386,0.529L40.521,0.521L40.657,0.514L40.793,0.509L40.929,0.505L41.065,0.503L41.202,0.502L41.339,0.502Z" style="fill:white;"/>
        <path d="M73.5,61C73.5,65.114 70.114,68.5 66,68.5C61.886,68.5 58.5,65.114 58.5,61C58.5,56.886 61.886,53.5 66,53.5C70.114,53.5 73.5,56.886 73.5,61Z" style="fill:white;fill-rule:nonzero;"/>
    </g>
</svg>
