<?xml version="1.0" encoding="UTF-8" standalone="no"?>
<!DOCTYPE svg PUBLIC "-//W3C//DTD SVG 1.1//EN" "http://www.w3.org/Graphics/SVG/1.1/DTD/svg11.dtd">
<svg width="100%" height="100%" viewBox="0 0 1000 500" version="1.1" xmlns="http://www.w3.org/2000/svg" xmlns:xlink="http://www.w3.org/1999/xlink" xml:space="preserve" style="fill-rule:evenodd;clip-rule:evenodd;stroke-linejoin:round;stroke-miterlimit:1.41421;">
    <g transform="matrix(4.50238,0,0,4.50238,331.161,81.1968)">
        <path d="M56.25,25.617C55.641,25.617 55.109,25.176 55.016,24.555C54.91,23.875 55.379,23.238 56.062,23.133C59.301,22.645 62.551,23.113 62.688,23.133C63.367,23.234 63.84,23.867 63.738,24.551C63.641,25.234 62.992,25.699 62.32,25.605C62.289,25.602 59.293,25.176 56.438,25.605C56.375,25.613 56.312,25.617 56.25,25.617" style="fill:white;"/>
        <path d="M30,23.117C29.309,23.117 28.75,22.559 28.75,21.867C28.75,17.047 24.824,13.117 20,13.117C15.176,13.117 11.25,17.047 11.25,21.867C11.25,22.559 10.691,23.117 10,23.117C9.309,23.117 8.75,22.559 8.75,21.867C8.75,15.664 13.797,10.617 20,10.617C26.203,10.617 31.25,15.664 31.25,21.867C31.25,22.559 30.691,23.117 30,23.117" style="fill:white;"/>
        <path d="M38.75,34.367C29.102,34.367 21.25,42.219 21.25,51.867C21.25,61.52 29.102,69.367 38.75,69.367C48.398,69.367 56.25,61.52 56.25,51.867C56.25,42.219 48.398,34.367 38.75,34.367M38.75,71.867C27.723,71.867 18.75,62.895 18.75,51.867C18.75,40.84 27.723,31.867 38.75,31.867C49.777,31.867 58.75,40.84 58.75,51.867C58.75,62.895 49.777,71.867 38.75,71.867" style="fill:white;"/>
        <path d="M36.625,71.512C30.691,65.695 27.562,58.887 27.578,51.824C27.59,44.742 30.723,37.965 36.629,32.223L38.371,34.016C32.957,39.277 30.09,45.438 30.078,51.828C30.062,58.203 32.934,64.391 38.375,69.727L36.625,71.512Z" style="fill:white;"/>
        <path d="M40.953,71.512L39.203,69.727C44.645,64.391 47.512,58.203 47.5,51.828C47.488,45.438 44.621,39.277 39.207,34.016L40.949,32.223C46.855,37.965 49.984,44.742 50,51.824C50.016,58.887 46.887,65.695 40.953,71.512" style="fill:white;"/>
        <rect x="37.5" y="33.117" width="2.5" height="37.5" style="fill:white;"/>
        <rect x="20" y="50.617" width="37.5" height="2.5" style="fill:white;"/>
        <rect x="22.5" y="41.867" width="32.5" height="2.5" style="fill:white;"/>
        <rect x="22.5" y="59.367" width="32.5" height="2.5" style="fill:white;"/>
        <path d="M58.711,50.617L59.965,50.617C66.875,50.617 72.5,44.996 72.5,38.082C72.5,32.062 68.102,26.695 62.273,25.598L61.27,25.406L61.254,24.387C61.117,14.039 52.754,5.617 42.605,5.617C36.348,5.617 30.051,9 26.57,14.23L25.879,15.27L24.836,14.582C23.402,13.625 21.727,13.117 20,13.117C15.176,13.117 11.25,17.047 11.25,21.867C11.25,21.973 11.258,22.074 11.266,22.176L11.281,22.438L11.27,22.637C11.258,22.801 11.25,22.961 11.25,23.117L11.25,23.906L10.539,24.246C5.883,26.48 2.5,31.867 2.5,37.062C2.5,44.539 8.582,50.617 16.055,50.617L18.789,50.617C19.438,40.172 28.141,31.867 38.75,31.867C49.359,31.867 58.062,40.172 58.711,50.617M59.965,53.117L56.25,53.117L56.25,51.867C56.25,42.219 48.398,34.367 38.75,34.367C29.102,34.367 21.25,42.219 21.25,51.867L21.25,53.117L16.055,53.117C7.203,53.117 0,45.914 0,37.062C0,31.117 3.57,25.18 8.77,22.344L8.77,22.34C8.758,22.184 8.75,22.027 8.75,21.867C8.75,15.664 13.797,10.617 20,10.617C21.812,10.617 23.578,11.051 25.172,11.879C29.246,6.449 35.82,3.117 42.605,3.117C53.785,3.117 63.059,12.113 63.719,23.363C70.215,25.07 75,31.223 75,38.082C75,46.375 68.258,53.117 59.965,53.117" style="fill:white;"/>
    </g>
</svg>
